<svg width="500" height="500" viewBox="0 0 500 500" fill="none" xmlns="http://www.w3.org/2000/svg">
<path d="M69.3899 338.22H430.75" stroke="#263238" stroke-linecap="round" stroke-linejoin="round"/>
<path opacity="0.28" d="M232.68 395.61L267.72 415.11L269.05 427.11L312.39 397.77L314.3 380.7L232.68 395.61Z" fill="black"/>
<path d="M272.56 409.03L232.68 395.61L275.54 372.88L314.3 380.7L272.56 409.03Z" fill="white"/>
<path opacity="0.15" d="M272.56 409.03L232.68 395.61L275.54 372.88L314.3 380.7L272.56 409.03Z" fill="black"/>
<path d="M272.56 409.03L232.68 395.61L275.54 372.88L314.3 380.7L272.56 409.03Z" stroke="#263238" stroke-linecap="round" stroke-linejoin="round"/>
<path d="M280.39 383.31L268.56 380.44L255.01 387.62L266.97 390.77L280.39 383.31Z" stroke="#263238" stroke-linecap="round" stroke-linejoin="round"/>
<path d="M287.84 379.59L253.18 398.22L272.77 404.93L305.05 383.03L287.84 379.59Z" fill="#263238"/>
<path d="M291.19 356.11L272.56 409.03L314.3 380.7L330.7 336.35L291.19 356.11Z" fill="white"/>
<path opacity="0.15" d="M291.19 356.11L272.56 409.03L314.3 380.7L330.7 336.35L291.19 356.11Z" fill="black"/>
<path d="M291.19 356.11L272.56 409.03L314.3 380.7L330.7 336.35L291.19 356.11Z" stroke="#263238" stroke-linecap="round" stroke-linejoin="round"/>
<path d="M156.83 410.09L181.95 445.92L222.22 431.15L194.51 400.12L156.83 410.09Z" fill="white" stroke="#263238" stroke-linecap="round" stroke-linejoin="round"/>
<path d="M213.35 400.49L249.18 430.41L199.68 449.99L169.76 411.94L213.35 400.49Z" fill="white" stroke="#263238" stroke-linecap="round" stroke-linejoin="round"/>
<path d="M345.39 66.18H266.62V167.81H345.39V66.18Z" fill="#FFB800"/>
<path opacity="0.5" d="M345.39 66.18H266.62V167.81H345.39V66.18Z" fill="white"/>
<path d="M334.88 79.73H277.12V154.26H334.88V79.73Z" fill="white"/>
<path d="M421.41 133.77H369.56V200.68H421.41V133.77Z" fill="#FFB800"/>
<path opacity="0.5" d="M421.41 133.77H369.56V200.68H421.41V133.77Z" fill="white"/>
<path d="M414.5 142.69H376.47V191.76H414.5V142.69Z" fill="white"/>
<path d="M240.4 133.77H188.55V200.68H240.4V133.77Z" fill="#FFB800"/>
<path opacity="0.5" d="M240.4 133.77H188.55V200.68H240.4V133.77Z" fill="white"/>
<path d="M233.5 142.69H195.47V191.76H233.5V142.69Z" fill="white"/>
<path opacity="0.28" d="M177.87 388.66C223.362 388.66 260.24 378.027 260.24 364.91C260.24 351.793 223.362 341.16 177.87 341.16C132.378 341.16 95.5 351.793 95.5 364.91C95.5 378.027 132.378 388.66 177.87 388.66Z" fill="black"/>
<path d="M279.27 327.41C279.27 327.41 274.42 319.95 259.14 321.82C243.86 323.69 211.06 330 198 332.25C184.94 334.5 164.84 349 160.37 358.34C155.9 367.68 159.25 373.25 187.58 374.74C215.91 376.23 255 353.12 267.34 346C279.68 338.88 278.52 331.13 279.27 327.41Z" fill="#263238" stroke="#263238" stroke-linecap="round" stroke-linejoin="round"/>
<path d="M202.79 222.53C202.79 222.53 194.87 237.78 191.94 240.72C190.381 242.429 188.473 243.784 186.347 244.695C184.22 245.606 181.923 246.051 179.61 246C173.75 246 152.88 243.22 145.84 256.72C138.8 270.22 137.07 310.25 137.37 312.6C137.67 314.95 119.47 330.5 120.06 349.6C120.65 368.7 140.89 379.52 169.35 375.42C197.81 371.32 205.14 350.18 205.14 337.86C205.14 325.54 211.3 318.79 218.05 305.86C224.8 292.93 234.77 279.46 231.54 268.01C228.31 256.56 216 251.28 211.89 249.81C207.78 248.34 219.52 234.81 216.58 228.1C213.64 221.39 207.78 218.71 202.79 222.53Z" fill="#FFB800"/>
<path opacity="0.13" d="M201.84 307.3C189.35 311.93 179.03 307.61 165.3 303.6C151.57 299.59 157.43 289.72 157.43 279.55C157.43 269.38 145.43 283.25 145.43 283.25L138.72 290.31C137.887 297.712 137.443 305.152 137.39 312.6C137.65 314.7 123.14 327.35 120.49 343.6C127.231 344.385 134.013 344.762 140.8 344.73C169.02 344.73 202.73 330.24 206.02 323.45C209.11 317.06 214.16 301.45 214.75 299.58C214.43 300.36 212.6 303.31 201.84 307.3Z" fill="black"/>
<path d="M202.79 222.53C202.79 222.53 194.87 237.78 191.94 240.72C190.381 242.429 188.473 243.784 186.347 244.695C184.22 245.606 181.923 246.051 179.61 246C173.75 246 152.88 243.22 145.84 256.72C138.8 270.22 137.07 310.25 137.37 312.6C137.67 314.95 119.47 330.5 120.06 349.6C120.65 368.7 140.89 379.52 169.35 375.42C197.81 371.32 205.14 350.18 205.14 337.86C205.14 325.54 211.3 318.79 218.05 305.86C224.8 292.93 234.77 279.46 231.54 268.01C228.31 256.56 216 251.28 211.89 249.81C207.78 248.34 219.52 234.81 216.58 228.1C213.64 221.39 207.78 218.71 202.79 222.53Z" stroke="#263238" stroke-linecap="round" stroke-linejoin="round"/>
<path d="M222.45 282.09C222.45 282.09 215.7 286.49 215.11 290.59C214.52 294.69 215.99 303.5 210.42 308.2C204.85 312.9 200.74 312.89 200.74 312.89" stroke="#263238" stroke-linecap="round" stroke-linejoin="round"/>
<path d="M150.72 296.62C150.72 296.62 150.72 307.2 163.34 308.01" stroke="#263238" stroke-linecap="round" stroke-linejoin="round"/>
<path d="M189.4 281.55C191.245 285.907 192.74 290.405 193.87 295" stroke="#263238" stroke-linecap="round" stroke-linejoin="round"/>
<path d="M205.57 332.52C207.06 323.3 212.34 316.78 218.05 305.85C218.95 304.12 219.92 302.38 220.9 300.63C215.56 302.72 214.68 301.36 214.68 301.36C212.15 307.26 208.77 309.51 208.77 309.51L199.58 334.8L205.57 332.52Z" fill="white" stroke="#263238" stroke-linecap="round" stroke-linejoin="round"/>
<path d="M123.53 333.77C121.179 338.702 119.992 344.107 120.06 349.57C120.64 368.64 140.89 379.49 169.35 375.39C197.81 371.29 205.14 350.15 205.14 337.83C205.122 334.045 205.775 330.287 207.07 326.73C153.53 338.7 132 336.71 123.53 333.77Z" fill="#263238" stroke="#263238" stroke-linecap="round" stroke-linejoin="round"/>
<path d="M184.93 311.66L177.6 295.66C177.545 295.54 177.467 295.433 177.37 295.344C177.273 295.254 177.16 295.185 177.036 295.14C176.787 295.048 176.511 295.059 176.27 295.17C176.029 295.281 175.841 295.484 175.75 295.734C175.658 295.983 175.669 296.259 175.78 296.5L183.12 312.44L184.93 311.66Z" fill="white" stroke="#263238" stroke-linecap="round" stroke-linejoin="round"/>
<path d="M183.12 312.49L184.89 313.95L184.93 311.66L183.12 312.49Z" stroke="#263238" stroke-linecap="round" stroke-linejoin="round"/>
<path d="M176.27 295.22C176.15 295.275 176.043 295.353 175.953 295.45C175.864 295.546 175.794 295.66 175.749 295.783C175.703 295.907 175.682 296.038 175.688 296.17C175.693 296.301 175.725 296.431 175.78 296.55L176.52 298.16L178.34 297.33L177.6 295.71C177.545 295.59 177.467 295.483 177.37 295.393C177.274 295.304 177.16 295.234 177.037 295.189C176.913 295.143 176.782 295.122 176.65 295.128C176.519 295.133 176.389 295.165 176.27 295.22Z" fill="white" stroke="#263238" stroke-linecap="round" stroke-linejoin="round"/>
<path d="M174.33 247.76C170.514 246.445 166.452 245.999 162.441 246.456C158.431 246.913 154.573 248.26 151.15 250.4C139.42 257.73 128.99 279.52 124.59 287.15C120.19 294.78 105.59 327.41 108.94 328.15C110.68 328.54 165.53 318.15 170.23 317.88C174.93 317.61 181.37 314.65 181.37 314.65C181.37 314.65 184.31 317.88 185.78 316.41C187.25 314.94 183.13 307.32 181.08 304.97C179.03 302.62 176.39 301.74 174.92 302.92C173.45 304.1 164.36 312.6 164.36 312.6L129.06 311.38L158.2 273.28" fill="#FFB800"/>
<path opacity="0.13" d="M179 307.61C174.52 303.86 171.32 309.72 167.7 312.68C164.08 315.64 157.84 315.31 138.78 315.31C119.72 315.31 119.05 315.97 117.41 316.95C115.77 317.93 120.7 303.15 132.86 289.34C145.02 275.53 152.58 264.04 152.58 255.16C152.58 252.3 151.58 251.16 150.25 250.98C138.87 258.82 128.85 279.72 124.56 287.15C120.16 294.78 105.56 327.41 108.91 328.15C110.65 328.54 165.5 318.15 170.2 317.88C174.9 317.61 181.34 314.65 181.34 314.65C181.76 315.092 182.215 315.5 182.7 315.87C183.17 313 181.87 310 179 307.61Z" fill="black"/>
<path d="M174.33 247.76C170.514 246.445 166.452 245.999 162.441 246.456C158.431 246.913 154.573 248.26 151.15 250.4C139.42 257.73 128.99 279.52 124.59 287.15C120.19 294.78 105.59 327.41 108.94 328.15C110.68 328.54 165.53 318.15 170.23 317.88C174.93 317.61 181.37 314.65 181.37 314.65C181.37 314.65 184.31 317.88 185.78 316.41C187.25 314.94 183.13 307.32 181.08 304.97C179.03 302.62 176.39 301.74 174.92 302.92C173.45 304.1 164.36 312.6 164.36 312.6L129.06 311.38L158.2 273.28" stroke="#263238" stroke-linecap="round" stroke-linejoin="round"/>
<path d="M181.37 314.65C181.37 314.65 184.31 317.88 185.78 316.41C187.25 314.94 183.13 307.32 181.08 304.97C179.03 302.62 176.39 301.74 174.92 302.92C173.45 304.1 164.36 312.6 164.36 312.6L129.06 311.38L137.89 299.83C132.078 298.497 126.644 295.861 122 292.12C116.19 303.9 106.09 327.52 108.94 328.12C110.68 328.51 165.53 318.12 170.23 317.85C174.93 317.58 181.37 314.65 181.37 314.65Z" fill="white"/>
<path d="M179 307.61C174.52 303.86 171.32 309.72 167.7 312.68C164.08 315.64 157.84 315.31 138.78 315.31C119.72 315.31 119.05 315.97 117.41 316.95C116.03 317.78 119.3 307.44 127.63 295.95C125.63 294.865 123.735 293.596 121.97 292.16C116.16 303.94 106.06 327.56 108.91 328.16C110.65 328.55 165.5 318.16 170.2 317.89C174.9 317.62 181.34 314.66 181.34 314.66C181.76 315.102 182.215 315.51 182.7 315.88C183.17 313 181.87 310 179 307.61Z" fill="#FFB800"/>
<path opacity="0.7" d="M179 307.61C174.52 303.86 171.32 309.72 167.7 312.68C164.08 315.64 157.84 315.31 138.78 315.31C119.72 315.31 119.05 315.97 117.41 316.95C116.03 317.78 119.3 307.44 127.63 295.95C125.63 294.865 123.735 293.596 121.97 292.16C116.16 303.94 106.06 327.56 108.91 328.16C110.65 328.55 165.5 318.16 170.2 317.89C174.9 317.62 181.34 314.66 181.34 314.66C181.76 315.102 182.215 315.51 182.7 315.88C183.17 313 181.87 310 179 307.61Z" fill="white"/>
<path d="M181.37 314.65C181.37 314.65 184.31 317.88 185.78 316.41C187.25 314.94 183.13 307.32 181.08 304.97C179.03 302.62 176.39 301.74 174.92 302.92C173.45 304.1 164.36 312.6 164.36 312.6L129.06 311.38L137.89 299.83C132.078 298.497 126.644 295.861 122 292.12C116.19 303.9 106.09 327.52 108.94 328.12C110.68 328.51 165.53 318.12 170.23 317.85C174.93 317.58 181.37 314.65 181.37 314.65Z" stroke="#263238" stroke-linecap="round" stroke-linejoin="round"/>
<path d="M179.61 312.6L155.85 336.36L193.4 341.06L214.23 323.16L179.61 312.6Z" fill="white"/>
<path opacity="0.36" d="M179.61 312.6L155.85 336.36L193.4 341.06L214.23 323.16L179.61 312.6Z" fill="black"/>
<path d="M179.61 312.6L155.85 336.36L193.4 341.06L214.23 323.16L179.61 312.6Z" stroke="#263238" stroke-linecap="round" stroke-linejoin="round"/>
<path d="M179.03 307.61L179.61 312.6L155.85 336.36L154.68 333.72L179.03 307.61Z" fill="white" stroke="#263238" stroke-linecap="round" stroke-linejoin="round"/>
<path d="M179.61 312.6L214.23 323.16L216 319.64L179.03 307.61L179.61 312.6Z" fill="white" stroke="#263238" stroke-linecap="round" stroke-linejoin="round"/>
<path d="M205.34 333.2C205.34 333.2 199.42 333.91 199.58 334.8C199.74 335.69 204.58 335.51 205.65 335.51C206.72 335.51 208.45 333 205.34 333.2Z" fill="white" stroke="#263238" stroke-linecap="round" stroke-linejoin="round"/>
<path d="M207.43 330.87C207.43 330.87 199.97 331.66 200.16 332.64C200.35 333.62 206.45 333.42 207.82 333.42C209.19 333.42 211.35 330.67 207.43 330.87Z" fill="white" stroke="#263238" stroke-linecap="round" stroke-linejoin="round"/>
<path d="M210 328.51C210 328.51 202.54 329.3 202.73 330.28C202.92 331.26 209.02 331.07 210.39 331.07C211.76 331.07 213.91 328.32 210 328.51Z" fill="white" stroke="#263238" stroke-linecap="round" stroke-linejoin="round"/>
<path d="M210.37 326.16C210.37 326.16 202.91 326.94 203.11 327.93C203.31 328.92 209.39 328.71 210.76 328.71C212.13 328.71 214.3 326 210.37 326.16Z" fill="white" stroke="#263238" stroke-linecap="round" stroke-linejoin="round"/>
<path d="M121.66 353.5C121.66 353.5 118.31 345.3 128.75 338.22C139.19 331.14 178.26 326.66 187.58 330.39C196.9 334.12 232.31 363.19 232.31 363.19L227.83 367.66C227.83 367.66 200.62 368.4 189.07 365.42C177.52 362.44 173 361 173 361C173 361 163.31 374.79 149.89 375.16" fill="#263238"/>
<path d="M121.66 353.5C121.66 353.5 118.31 345.3 128.75 338.22C139.19 331.14 178.26 326.66 187.58 330.39C196.9 334.12 232.31 363.19 232.31 363.19L227.83 367.66C227.83 367.66 200.62 368.4 189.07 365.42C177.52 362.44 173 361 173 361C173 361 163.31 374.79 149.89 375.16" stroke="#263238" stroke-linecap="round" stroke-linejoin="round"/>
<path d="M228.21 370.27C236.073 373.45 244.356 375.471 252.8 376.27C266.22 377.39 270.32 366.58 270.32 363.27C270.32 359.96 264.73 360.66 259.14 361.4C253.55 362.14 239.76 362.89 236.4 362.52C233.04 362.15 224.11 363.56 228.21 370.27Z" fill="white" stroke="#263238" stroke-linecap="round" stroke-linejoin="round"/>
<path d="M260.63 326.29C260.63 326.29 244.63 325.91 236.03 334.49C227.43 343.07 208.45 366.91 203.98 371.39C199.51 375.87 181.62 374.74 177.89 374.39C174.16 374.04 170.43 371.39 165.22 373.64C160.01 375.89 153.29 379.64 152.17 384.45C151.05 389.26 150.31 391.16 152.54 391.53C154.77 391.9 166.71 390 173 390C179.29 390 194.62 388.88 203.57 386.28C212.52 383.68 238.23 368.38 248.29 362.42C258.35 356.46 276.29 345.65 279.23 335.59C282.17 325.53 274.38 323.29 269.91 324.03" fill="#263238"/>
<path d="M260.63 326.29C260.63 326.29 244.63 325.91 236.03 334.49C227.43 343.07 208.45 366.91 203.98 371.39C199.51 375.87 181.62 374.74 177.89 374.39C174.16 374.04 170.43 371.39 165.22 373.64C160.01 375.89 153.29 379.64 152.17 384.45C151.05 389.26 150.31 391.16 152.54 391.53C154.77 391.9 166.71 390 173 390C179.29 390 194.62 388.88 203.57 386.28C212.52 383.68 238.23 368.38 248.29 362.42C258.35 356.46 276.29 345.65 279.23 335.59C282.17 325.53 274.38 323.29 269.91 324.03" stroke="#263238" stroke-linecap="round" stroke-linejoin="round"/>
<path d="M208.75 369.06C208.75 369.06 230.25 337.06 241.25 331.06C252.25 325.06 264.25 326.06 264.25 326.06" stroke="white" stroke-linecap="round" stroke-linejoin="round"/>
<path d="M200.47 373.27C193.59 375.48 180.95 374.67 177.89 374.37C174.16 374 170.43 371.37 165.22 373.62C160.01 375.87 153.29 379.62 152.17 384.43C151.05 389.24 150.31 391.14 152.54 391.51C154.77 391.88 166.71 390 173 390C179.29 390 194.62 388.88 203.57 386.28C206.099 385.459 208.566 384.457 210.95 383.28C208.39 378.61 203.72 375.21 200.47 373.27Z" fill="white" stroke="#263238" stroke-linecap="round" stroke-linejoin="round"/>
<path d="M189.07 374.37C189.07 374.37 195.78 377.37 197.27 380.7C198.76 384.03 199.88 387.04 199.88 388.16C199.88 389.28 212.18 386.3 215.88 382.57C219.58 378.84 209.88 368.78 206.56 368.78C203.24 368.78 202.46 369.9 198.36 371.01C194.26 372.12 188.32 371.39 189.07 374.37Z" fill="white" stroke="#263238" stroke-linecap="round" stroke-linejoin="round"/>
<path d="M173 361C173 361 164.8 356.9 164.43 351.68" stroke="white" stroke-linecap="round" stroke-linejoin="round"/>
<path d="M157.75 373.06C164.253 370.289 170.317 366.583 175.75 362.06C175.75 362.06 191.75 367.06 202.25 367.06" stroke="white" stroke-linecap="round" stroke-linejoin="round"/>
<path d="M217.35 252.24C215.589 251.304 213.764 250.492 211.89 249.81C207.78 248.35 219.52 234.81 216.58 228.1C213.64 221.39 207.78 218.71 202.79 222.53C202.79 222.53 194.87 237.78 191.94 240.72C190.381 242.429 188.474 243.784 186.347 244.695C184.22 245.606 181.923 246.051 179.61 246C178.499 246.013 177.39 246.097 176.29 246.25C175.73 252.75 176.18 268.32 192.52 272.7C207.91 276.82 214.49 264.12 217.35 252.24Z" fill="white"/>
<path d="M202.79 222.53C202.79 222.53 194.87 237.78 191.94 240.72C190.381 242.429 188.473 243.784 186.347 244.695C184.22 245.606 181.923 246.051 179.61 246C178.499 246.013 177.39 246.097 176.29 246.25C176.22 247.07 176.17 248.04 176.16 249.12C177.8 253.37 180.96 258.91 186.47 260.12C195.67 262.12 202.24 255.52 203.56 253.22C204.74 251.14 209.96 230.01 208.56 220.86C207.535 220.739 206.497 220.824 205.506 221.111C204.515 221.398 203.591 221.88 202.79 222.53Z" fill="#FFB800"/>
<path opacity="0.7" d="M202.79 222.53C202.79 222.53 194.87 237.78 191.94 240.72C190.381 242.429 188.473 243.784 186.347 244.695C184.22 245.606 181.923 246.051 179.61 246C178.499 246.013 177.39 246.097 176.29 246.25C176.22 247.07 176.17 248.04 176.16 249.12C177.8 253.37 180.96 258.91 186.47 260.12C195.67 262.12 202.24 255.52 203.56 253.22C204.74 251.14 209.96 230.01 208.56 220.86C207.535 220.739 206.497 220.824 205.506 221.111C204.515 221.398 203.591 221.88 202.79 222.53Z" fill="white"/>
<path d="M217.35 252.24C215.589 251.304 213.764 250.492 211.89 249.81C207.78 248.35 219.52 234.81 216.58 228.1C213.64 221.39 207.78 218.71 202.79 222.53C202.79 222.53 194.87 237.78 191.94 240.72C190.381 242.429 188.474 243.784 186.347 244.695C184.22 245.606 181.923 246.051 179.61 246C178.499 246.013 177.39 246.097 176.29 246.25C175.73 252.75 176.18 268.32 192.52 272.7C207.91 276.82 214.49 264.12 217.35 252.24Z" stroke="#263238" stroke-linecap="round" stroke-linejoin="round"/>
<path d="M202.6 255.45C202.6 255.45 198.98 257.15 197.8 262.45" stroke="#263238" stroke-linecap="round" stroke-linejoin="round"/>
<path d="M211.59 204.34C211.59 204.34 213.35 198.47 209.25 196.42C205.15 194.37 189.3 200.52 185.78 210.79C182.26 221.06 197.22 225.17 205.43 219.3C213.64 213.43 212.18 205.51 212.18 205.51L211.59 204.34Z" fill="#263238" stroke="#263238" stroke-linecap="round" stroke-linejoin="round"/>
<path d="M185.78 210.79C185.78 210.79 182.47 219.67 188.58 224.15C194.69 228.63 203.64 220.08 203.64 220.08" stroke="#263238" stroke-linecap="round" stroke-linejoin="round"/>
<path d="M203.09 232.5C203.09 232.5 196.34 225.17 201 212C205.66 198.83 218 195.29 232.72 196.09C251.22 197.09 252.93 216.4 252.35 221.09C251.984 223.968 251.396 226.813 250.59 229.6C250.59 229.6 257.92 238.69 253.81 244.27C249.7 249.85 235.33 247.2 229.75 239.57C224.17 231.94 207.46 234.29 206.58 234.88C205.7 235.47 203.09 232.5 203.09 232.5Z" fill="#263238" stroke="#263238" stroke-linecap="round" stroke-linejoin="round"/>
<path d="M241.25 244.86C240.41 244.509 239.662 243.973 239.06 243.29" stroke="white" stroke-linecap="round" stroke-linejoin="round"/>
<path d="M237 228.63C237 228.63 251.24 240.03 246.77 243.69C246.342 244.042 245.88 244.35 245.39 244.61" stroke="white" stroke-linecap="round" stroke-linejoin="round"/>
<path d="M235 225.37C239.771 225.245 244.507 226.22 248.84 228.22" stroke="white" stroke-linecap="round" stroke-linejoin="round"/>
<path d="M234.99 220.08L231.73 204.61" stroke="white" stroke-linecap="round" stroke-linejoin="round"/>
<path d="M207.1 219.92C206.55 219.73 206 219.52 205.43 219.3" stroke="white" stroke-linecap="round" stroke-linejoin="round"/>
<path d="M233.77 218.05C233.77 218.05 225.77 224.17 212.27 221.36" stroke="white" stroke-linecap="round" stroke-linejoin="round"/>
<path d="M232.14 211.94C232.14 211.94 227.26 214.38 219.14 214.38" stroke="white" stroke-linecap="round" stroke-linejoin="round"/>
<path d="M200.15 233.09C200.15 233.09 199.27 241.3 200.74 246.88C202.21 252.46 202.5 261.26 207.74 262.14C212.98 263.02 230.33 253.33 233.56 249.81C235.833 247.446 237.096 244.289 237.08 241.01C237.08 239.25 234.15 226.93 234.15 226.93C229.209 228.05 224.197 228.835 219.15 229.28C213.687 229.807 208.175 229.103 203.02 227.22C203.02 227.22 199 229.86 200.15 233.09Z" fill="white"/>
<path d="M203.09 227.22C203.09 227.22 198.98 229.86 200.15 233.09C200.15 233.09 199.27 241.3 200.74 246.88C201.94 251.43 202.35 258.13 205.34 260.88C202.87 255.47 201.6 242.35 207.83 236.71C214.73 230.47 231.83 227.51 231.83 227.51V227.41C229.3 227.92 224.9 228.69 219.25 229.24C213.78 229.785 208.258 229.094 203.09 227.22Z" fill="#FFB800"/>
<path opacity="0.7" d="M203.09 227.22C203.09 227.22 198.98 229.86 200.15 233.09C200.15 233.09 199.27 241.3 200.74 246.88C201.94 251.43 202.35 258.13 205.34 260.88C202.87 255.47 201.6 242.35 207.83 236.71C214.73 230.47 231.83 227.51 231.83 227.51V227.41C229.3 227.92 224.9 228.69 219.25 229.24C213.78 229.785 208.258 229.094 203.09 227.22Z" fill="white"/>
<path d="M200.15 233.09C200.15 233.09 199.27 241.3 200.74 246.88C202.21 252.46 202.5 261.26 207.74 262.14C212.98 263.02 230.33 253.33 233.56 249.81C235.833 247.446 237.096 244.289 237.08 241.01C237.08 239.25 234.15 226.93 234.15 226.93C229.209 228.05 224.197 228.835 219.15 229.28C213.687 229.807 208.175 229.103 203.02 227.22C203.02 227.22 199 229.86 200.15 233.09Z" stroke="#263238" stroke-linecap="round" stroke-linejoin="round"/>
<path d="M203.67 230.16C203.67 230.16 203.97 222.82 200.44 222.82C196.91 222.82 194.58 234.82 201.33 236.32" fill="white"/>
<path d="M203.67 230.16C203.67 230.16 203.97 222.82 200.44 222.82C196.91 222.82 194.58 234.82 201.33 236.32" fill="#FFB800"/>
<path opacity="0.7" d="M203.67 230.16C203.67 230.16 203.97 222.82 200.44 222.82C196.91 222.82 194.58 234.82 201.33 236.32" fill="white"/>
<path d="M203.67 230.16C203.67 230.16 203.97 222.82 200.44 222.82C196.91 222.82 194.58 234.82 201.33 236.32" stroke="#263238" stroke-linecap="round" stroke-linejoin="round"/>
<path d="M226 243.07C226 243.07 219 254.21 217.49 254.21C215.98 254.21 215.14 251.87 215.14 251.87" stroke="#263238" stroke-linecap="round" stroke-linejoin="round"/>
<path d="M212.77 238.66C212.902 239.962 213.518 241.167 214.496 242.037C215.473 242.907 216.741 243.379 218.05 243.36" stroke="#263238" stroke-linecap="round" stroke-linejoin="round"/>
<path d="M225.38 247.76C225.38 247.76 225.68 251.57 230.66 250.4" stroke="#263238" stroke-linecap="round" stroke-linejoin="round"/>
<path d="M223.33 239.25C223.33 239.25 221.28 233.97 216.58 233.68" stroke="#263238" stroke-width="1.5" stroke-linecap="round" stroke-linejoin="round"/>
<path d="M233.6 245.41C231.54 241.89 227.44 242.77 227.44 242.77" stroke="#263238" stroke-width="1.5" stroke-linecap="round" stroke-linejoin="round"/>
<path d="M209.27 253.13C209.343 253.904 209.665 254.634 210.188 255.209C210.711 255.784 211.406 256.174 212.17 256.32" stroke="#263238" stroke-linecap="round" stroke-linejoin="round"/>
<path d="M230.11 257.13C230.11 257.13 230.92 261.6 235.8 252.65C240.68 243.7 234.19 226.93 234.19 226.93" stroke="#263238" stroke-linecap="round" stroke-linejoin="round"/>
<path opacity="0.13" d="M214.73 299.62C214.756 299.562 214.776 299.502 214.79 299.44L214.73 299.62Z" fill="black"/>
</svg>
