<svg width="97" height="88" viewBox="0 0 97 88" fill="none" xmlns="http://www.w3.org/2000/svg">
<path d="M26.1546 85C30.3437 85 43.8467 85 53.3995 85C60.0828 85 66.9483 84.5302 72.8598 81.4123C101.8 66.1483 100.336 21.5101 72.6994 6.57279C66.9054 3.44112 60.1343 3 53.5481 3C45.2074 3 33.4989 3 26.1546 3M26.1546 85C36.5395 85 39.1204 78.5729 33.9754 70.795L14.6463 46.4021C13.2021 44.5795 13.205 42.0018 14.6534 40.1826L33.9754 15.9131C37.437 9.84384 35.6421 4.80762 26.1546 3M26.1546 85H0M27.7038 63.8866H43.9903C51.4652 63.8866 59.5081 63.5838 65.1884 58.7249C75.2008 50.1604 74.186 35.4607 63.9931 27.8356C58.8404 23.981 52.0053 23.7906 45.5704 23.7906H27.7038M26.1546 3H0" stroke="#FBB901" stroke-width="5"/>
</svg>
