<svg width="24" height="24" viewBox="0 0 24 24" fill="none" xmlns="http://www.w3.org/2000/svg">
<path fill-rule="evenodd" clip-rule="evenodd" d="M12 24C18.6274 24 24 18.6274 24 12C24 5.37258 18.6274 0 12 0C5.37258 0 0 5.37258 0 12C0 18.6274 5.37258 24 12 24Z" fill="#3A3838"/>
<path d="M15.0698 4.80311L13.1083 4.80005C10.9046 4.80005 9.48055 6.22193 9.48055 8.42266V10.0929H7.50837C7.33795 10.0929 7.19995 10.2274 7.19995 10.3932V12.8133C7.19995 12.9791 7.33811 13.1134 7.50837 13.1134H9.48055V19.2199C9.48055 19.3857 9.61855 19.52 9.78897 19.52H12.3621C12.5325 19.52 12.6705 19.3856 12.6705 19.2199V13.1134H14.9765C15.1469 13.1134 15.2849 12.9791 15.2849 12.8133L15.2858 10.3932C15.2858 10.3136 15.2533 10.2373 15.1955 10.181C15.1378 10.1246 15.0591 10.0929 14.9772 10.0929H12.6705V8.67702C12.6705 7.99648 12.8372 7.651 13.7481 7.651L15.0695 7.65054C15.2397 7.65054 15.3777 7.51609 15.3777 7.35039V5.10326C15.3777 4.93772 15.2399 4.80342 15.0698 4.80311Z" fill="#FFB800"/>
</svg>
