<svg width="29" height="25" viewBox="0 0 29 25" fill="none" xmlns="http://www.w3.org/2000/svg">
<path fill-rule="evenodd" clip-rule="evenodd" d="M26.0914 0H2.10707C1.57503 0.00256375 1.06523 0.213684 0.687143 0.588018C0.309064 0.96236 0.0928786 1.47004 0.085022 2.00203V2.82285C0.0860816 3.35863 0.299522 3.87212 0.678557 4.25078C1.05759 4.62944 1.5713 4.84237 2.10707 4.8429H26.0914C26.6271 4.84237 27.1408 4.62944 27.5199 4.25078C27.8988 3.87212 28.1124 3.35863 28.1134 2.82285V2.00603C28.1066 1.47335 27.8908 0.964644 27.5126 0.589453C27.1345 0.214253 26.6241 0.00258125 26.0914 0ZM26.0914 9.86939H2.10707C1.57503 9.87193 1.06523 10.0831 0.687143 10.4574C0.309064 10.8317 0.0928786 11.3394 0.085022 11.8714V12.6863C0.085552 13.2224 0.298758 13.7364 0.677851 14.1154C1.05695 14.4946 1.57095 14.7078 2.10707 14.7083H26.0914C26.6254 14.7078 27.1376 14.4962 27.5163 14.1197C27.8951 13.7432 28.1097 13.2323 28.1134 12.6983V11.8815C28.1087 11.3475 27.8938 10.837 27.5153 10.4604C27.1368 10.0838 26.6253 9.87149 26.0914 9.86939ZM2.10707 19.7537H26.0853C26.6192 19.7542 27.1315 19.9651 27.5111 20.3405C27.8907 20.716 28.1071 21.2258 28.1134 21.7598V22.5746C28.1113 23.1107 27.8966 23.624 27.5163 24.002C27.1361 24.38 26.6214 24.5917 26.0853 24.5907H2.10707C1.57095 24.5901 1.05695 24.3769 0.677851 23.9978C0.298758 23.6187 0.085552 23.1047 0.085022 22.5686V21.7557C0.0928786 21.2237 0.309064 20.7161 0.687143 20.3417C1.06523 19.9674 1.57503 19.7563 2.10707 19.7537Z" fill="#72777B"/>
</svg>
