<svg width="68" height="67" viewBox="0 0 68 67" fill="none" xmlns="http://www.w3.org/2000/svg">
<path d="M21.7206 21.674H26.9802C27.0893 21.674 27.1775 21.5869 27.1775 21.4796C27.1775 21.3722 27.0893 21.2852 26.9802 21.2852H21.7206C21.6117 21.2852 21.5233 21.3722 21.5233 21.4796C21.5233 21.5869 21.6117 21.674 21.7206 21.674Z" fill="white"/>
<path d="M27.7728 21.4796C27.7728 21.5869 27.8612 21.674 27.9701 21.674H42.7984C42.9073 21.674 42.9957 21.5869 42.9957 21.4796C42.9957 21.3722 42.9073 21.2852 42.7984 21.2852H27.9701C27.8612 21.2852 27.7728 21.3722 27.7728 21.4796Z" fill="white"/>
<path d="M44.5451 21.674H46.8741C46.9831 21.674 47.0714 21.5869 47.0714 21.4796C47.0714 21.3722 46.9831 21.2852 46.8741 21.2852H44.5451C44.4362 21.2852 44.3478 21.3722 44.3478 21.4796C44.3478 21.5869 44.4362 21.674 44.5451 21.674Z" fill="white"/>
<path d="M26.6731 23.086C26.6731 22.9787 26.5847 22.8916 26.4758 22.8916H21.7208C21.6118 22.8916 21.5234 22.9787 21.5234 23.086C21.5234 23.1933 21.6118 23.2804 21.7208 23.2804H26.4758C26.5847 23.2804 26.6731 23.1933 26.6731 23.086Z" fill="white"/>
<path d="M30.8813 23.3761C30.9902 23.3761 31.0786 23.289 31.0786 23.1817C31.0786 23.0744 30.9902 22.9873 30.8813 22.9873H28.2418C28.1328 22.9873 28.0444 23.0744 28.0444 23.1817C28.0444 23.289 28.1328 23.3761 28.2418 23.3761H30.8813Z" fill="white"/>
<path d="M42.4101 23.3761C42.519 23.3761 42.6074 23.289 42.6074 23.1817C42.6074 23.0744 42.519 22.9873 42.4101 22.9873H32.7059C32.5969 22.9873 32.5085 23.0744 32.5085 23.1817C32.5085 23.289 32.5969 23.3761 32.7059 23.3761H42.4101Z" fill="white"/>
<path d="M44.6582 23.1817C44.6582 23.289 44.7466 23.3761 44.8555 23.3761H47.2234C47.3323 23.3761 47.4207 23.289 47.4207 23.1817C47.4207 23.0744 47.3323 22.9873 47.2234 22.9873H44.8555C44.7466 22.9873 44.6582 23.0744 44.6582 23.1817Z" fill="white"/>
<path d="M21.7756 24.7942C21.7756 24.9016 21.864 24.9886 21.973 24.9886H38.6578C38.7668 24.9886 38.8552 24.9016 38.8552 24.7942C38.8552 24.6869 38.7668 24.5999 38.6578 24.5999H21.973C21.864 24.5999 21.7756 24.6869 21.7756 24.7942Z" fill="white"/>
<path d="M39.9354 24.7942C39.9354 24.9016 40.0238 24.9886 40.1327 24.9886H46.874C46.983 24.9886 47.0713 24.9016 47.0713 24.7942C47.0713 24.6869 46.983 24.5999 46.874 24.5999H40.1327C40.0238 24.5999 39.9354 24.6869 39.9354 24.7942Z" fill="white"/>
<path d="M25.8449 26.2223C25.8449 26.1149 25.7565 26.0278 25.6476 26.0278H21.9729C21.8639 26.0278 21.7756 26.1149 21.7756 26.2223C21.7756 26.3296 21.8639 26.4167 21.9729 26.4167H25.6476C25.7565 26.4167 25.8449 26.3296 25.8449 26.2223Z" fill="white"/>
<path d="M38.0012 26.2223C38.0012 26.1149 37.9128 26.0278 37.8039 26.0278H26.9803C26.8713 26.0278 26.783 26.1149 26.783 26.2223C26.783 26.3296 26.8713 26.4167 26.9803 26.4167H37.8039C37.9128 26.4167 38.0012 26.3296 38.0012 26.2223Z" fill="white"/>
<path d="M45.6611 26.2223C45.6611 26.1149 45.5727 26.0278 45.4638 26.0278H40.1328C40.0238 26.0278 39.9355 26.1149 39.9355 26.2223C39.9355 26.3296 40.0238 26.4167 40.1328 26.4167H45.4638C45.5727 26.4167 45.6611 26.3296 45.6611 26.2223Z" fill="white"/>
<path d="M28.1672 27.752C28.1672 27.6447 28.0788 27.5576 27.9699 27.5576H22.5356C22.4266 27.5576 22.3383 27.6447 22.3383 27.752C22.3383 27.8593 22.4266 27.9464 22.5356 27.9464H27.9699C28.0788 27.9464 28.1672 27.8593 28.1672 27.752Z" fill="white"/>
<path d="M40.6504 27.5576H30.3152C30.2063 27.5576 30.1179 27.6447 30.1179 27.752C30.1179 27.8593 30.2063 27.9464 30.3152 27.9464H40.6504C40.7593 27.9464 40.8477 27.8593 40.8477 27.752C40.8477 27.6447 40.7593 27.5576 40.6504 27.5576Z" fill="white"/>
<path d="M42.9374 27.752C42.9374 27.8593 43.0258 27.9464 43.1347 27.9464H55.2197C55.3287 27.9464 55.417 27.8593 55.417 27.752C55.417 27.6447 55.3287 27.5576 55.2197 27.5576H43.1347C43.0258 27.5576 42.9374 27.6447 42.9374 27.752Z" fill="white"/>
<path d="M33.2839 29.0923C33.2839 28.985 33.1955 28.8979 33.0866 28.8979H25.2714C25.1625 28.8979 25.0741 28.985 25.0741 29.0923C25.0741 29.1997 25.1625 29.2868 25.2714 29.2868H33.0866C33.1955 29.2868 33.2839 29.1997 33.2839 29.0923Z" fill="white"/>
<path d="M38.6923 29.0923C38.6923 28.985 38.604 28.8979 38.495 28.8979H35.6742C35.5653 28.8979 35.4769 28.985 35.4769 29.0923C35.4769 29.1997 35.5653 29.2868 35.6742 29.2868H38.495C38.604 29.2868 38.6923 29.1997 38.6923 29.0923Z" fill="white"/>
<path d="M35.6139 35.0826C35.6139 34.9753 35.5254 34.8882 35.4166 34.8882H32.5957C32.4868 34.8882 32.3984 34.9753 32.3984 35.0826C32.3984 35.1899 32.4868 35.277 32.5957 35.277H35.4166C35.5255 35.277 35.6139 35.1899 35.6139 35.0826Z" fill="white"/>
<path d="M52.6925 29.0923C52.6925 28.985 52.6041 28.8979 52.4952 28.8979H41.3159C41.2068 28.8979 41.1185 28.985 41.1185 29.0923C41.1185 29.1997 41.2068 29.2868 41.3159 29.2868H52.4952C52.6041 29.2868 52.6925 29.1997 52.6925 29.0923Z" fill="white"/>
<path d="M35.5815 30.5567C35.5815 30.4494 35.493 30.3623 35.3841 30.3623H26.5208C26.4119 30.3623 26.3235 30.4494 26.3235 30.5567C26.3235 30.664 26.4119 30.7511 26.5208 30.7511H35.3841C35.493 30.7511 35.5815 30.664 35.5815 30.5567Z" fill="white"/>
<path d="M36.251 30.7511H42.6429C42.7519 30.7511 42.8402 30.664 42.8402 30.5567C42.8402 30.4494 42.7519 30.3623 42.6429 30.3623H36.251C36.1421 30.3623 36.0537 30.4494 36.0537 30.5567C36.0537 30.664 36.1421 30.7511 36.251 30.7511Z" fill="white"/>
<path d="M45.5122 30.5567C45.5122 30.664 45.6006 30.7511 45.7095 30.7511H55.6856C55.7946 30.7511 55.8829 30.664 55.8829 30.5567C55.8829 30.4494 55.7946 30.3623 55.6856 30.3623H45.7095C45.6006 30.3623 45.5122 30.4494 45.5122 30.5567Z" fill="white"/>
<path d="M41.1583 32.1124C41.1583 32.0051 41.0699 31.918 40.961 31.918H29.9369C29.8279 31.918 29.7396 32.0051 29.7396 32.1124C29.7396 32.2197 29.8279 32.3068 29.9369 32.3068H40.961C41.0699 32.3068 41.1583 32.2197 41.1583 32.1124Z" fill="white"/>
<path d="M32.2013 33.6549C32.2013 33.7622 32.2897 33.8493 32.3986 33.8493H49.0835C49.1924 33.8493 49.2808 33.7622 49.2808 33.6549C49.2808 33.5475 49.1924 33.4604 49.0835 33.4604H32.3986C32.2897 33.4604 32.2013 33.5475 32.2013 33.6549Z" fill="white"/>
<path d="M48.2294 35.277C48.3383 35.277 48.4267 35.1899 48.4267 35.0826C48.4267 34.9753 48.3383 34.8882 48.2294 34.8882H37.4059C37.297 34.8882 37.2086 34.9753 37.2086 35.0826C37.2086 35.1899 37.297 35.277 37.4059 35.277H48.2294Z" fill="white"/>
<path d="M51.0761 36.418H34.2796C34.1706 36.418 34.0823 36.5051 34.0823 36.6124C34.0823 36.7197 34.1706 36.8068 34.2796 36.8068H51.0761C51.185 36.8068 51.2734 36.7197 51.2734 36.6124C51.2734 36.5051 51.185 36.418 51.0761 36.418Z" fill="white"/>
<path d="M50.6977 38.3999H46.2629C46.1538 38.3999 46.0656 38.487 46.0656 38.5943C46.0656 38.7016 46.1538 38.7887 46.2629 38.7887H50.6977C50.8066 38.7887 50.8951 38.7016 50.8951 38.5943C50.8951 38.487 50.8066 38.3999 50.6977 38.3999Z" fill="white"/>
<path d="M45.0368 38.3999H33.8575C33.7484 38.3999 33.6602 38.487 33.6602 38.5943C33.6602 38.7016 33.7484 38.7887 33.8575 38.7887H45.0368C45.1457 38.7887 45.2341 38.7016 45.2341 38.5943C45.2341 38.487 45.1457 38.3999 45.0368 38.3999Z" fill="white"/>
<path d="M49.6259 39.9761H46.6681C46.5591 39.9761 46.4708 40.0632 46.4708 40.1705C46.4708 40.2778 46.5591 40.3649 46.6681 40.3649H49.6259C49.7348 40.3649 49.8232 40.2778 49.8232 40.1705C49.8232 40.0632 49.7348 39.9761 49.6259 39.9761Z" fill="white"/>
<path d="M29.4615 19.5151C29.4877 19.5267 29.5152 19.5322 29.5422 19.5322C29.6176 19.5322 29.6895 19.4895 29.7223 19.4175C29.7438 19.3701 30.267 18.2656 31.7099 18.7566L31.8744 18.812L31.9514 18.6585C31.9543 18.6528 32.2442 18.0857 32.7777 17.9603C33.1129 17.8815 33.4865 17.9919 33.8879 18.2886C33.9752 18.353 34.0989 18.3355 34.1642 18.2497C34.2296 18.1638 34.2118 18.042 34.1247 17.9775C33.6237 17.6074 33.1384 17.4746 32.6826 17.583C32.16 17.7073 31.8293 18.1173 31.6832 18.3406C30.0185 17.869 29.369 19.2437 29.3623 19.2581C29.3177 19.356 29.362 19.471 29.4615 19.5151Z" fill="white"/>
<path d="M24.8155 15.7439C24.8524 15.707 25.7302 14.8485 26.9125 15.8006L27.0477 15.9096L27.1738 15.7904C27.1785 15.786 27.6428 15.3534 28.1912 15.4167C28.5345 15.456 28.8472 15.687 29.1205 16.1029C29.1583 16.1604 29.2216 16.1917 29.2862 16.1917C29.3229 16.1917 29.3601 16.1815 29.3933 16.1605C29.4848 16.1021 29.5109 15.9817 29.4517 15.8916C29.1115 15.3736 28.7027 15.0838 28.2369 15.0305C27.7027 14.969 27.2486 15.2413 27.0334 15.4011C25.6363 14.3917 24.5449 15.4607 24.5337 15.4719C24.4574 15.5486 24.4587 15.6716 24.5365 15.7468C24.6145 15.822 24.7393 15.8207 24.8155 15.7439Z" fill="white"/>
<path d="M33.4229 12.1541C33.2452 11.9544 32.857 11.5966 32.3215 11.5492C31.8548 11.5081 31.3943 11.7092 30.9538 12.1478C30.8771 12.2241 30.8778 12.3472 30.9553 12.4227C31.0327 12.4982 31.1577 12.4976 31.2342 12.4213C31.5871 12.07 31.9397 11.9063 32.2836 11.9362C32.83 11.9831 33.2012 12.5021 33.2046 12.5069L33.3034 12.649L33.4584 12.5695C34.8022 11.881 35.4928 12.8907 35.5232 12.9365C35.561 12.9942 35.6244 13.0257 35.6893 13.0257C35.7258 13.0257 35.7625 13.0156 35.7955 12.995C35.8873 12.937 35.9141 12.8168 35.8553 12.7264C35.8466 12.7131 34.9993 11.4471 33.4229 12.1541Z" fill="white"/>
<path d="M64.1225 31.7486C63.3562 32.3099 62.5417 32.9075 61.7466 33.4993C61.0693 34.0023 60.4494 34.47 59.8519 34.9287C59.1734 35.4479 58.5167 35.9639 57.9001 36.4623C57.2539 36.9831 56.6275 37.5051 56.0385 38.0136L56.0248 38.0255C56.0184 38.0311 56.0121 38.0368 56 38.0465C54.1663 39.6303 52.4057 41.2283 50.7675 42.7961C50.5057 43.0463 50.2462 43.2974 49.9873 43.55H47.4213C47.5791 43.3904 47.7361 43.2306 47.8927 43.0703C48.1493 42.8075 48.4054 42.5422 48.6601 42.2769C48.6612 42.2758 48.6622 42.2747 48.6633 42.2736C48.8183 42.1122 48.9733 41.9506 49.1261 41.7899C49.3441 41.5614 49.5613 41.3303 49.771 41.1038C50.2529 40.588 50.7298 40.0635 51.1885 39.545C51.5474 39.1407 51.9049 38.7275 52.2509 38.3173C53.1544 37.2501 53.964 36.2293 54.7258 35.1965C55.0685 34.7323 55.4115 34.2501 55.745 33.7637V33.7636C55.7452 33.7634 55.7453 33.7632 55.7455 33.763C55.8417 33.6231 55.9363 33.4832 56.031 33.3424C56.5467 32.5728 57.0975 31.6368 57.11 30.2607C57.1382 30.0128 57.0573 29.6831 56.8631 29.2543C56.8134 29.1434 56.756 29.0265 56.6874 28.8963C56.2016 27.9819 55.554 27.1683 54.928 26.3813L54.7061 26.1023C54.3386 25.6407 53.943 25.1588 53.53 24.6701C53.0718 24.1287 52.5973 23.5846 52.1193 23.0527C51.6145 22.4909 51.0853 21.9171 50.5466 21.3472C49.9141 20.6773 49.2537 19.9958 48.5281 19.2636C47.5742 18.2995 46.6023 17.3418 45.8621 16.6152C45.4168 16.1781 44.961 15.7419 44.5074 15.3188L44.5072 15.3187C44.5061 15.3177 44.505 15.3167 44.504 15.3156C42.6323 13.5655 40.7025 11.948 38.7681 10.5085C38.088 10.0017 37.394 9.50677 36.7054 9.03738C35.4709 8.19628 33.5904 7.22854 31.519 8.52823C30.7222 9.02844 29.9805 9.60776 29.2633 10.168C26.6193 12.2339 23.9612 14.6694 20.9242 17.8106L20.7618 14.8157C23.7001 11.5482 26.7917 8.04369 29.4934 4.27319L29.5994 4.12514C30.1962 3.29142 30.8134 2.42934 31.4338 1.59251C31.907 0.953026 32.4758 0.366496 33.4316 0.412173C34.0681 0.421411 34.5976 0.696993 34.9631 1.20915C36.9268 3.95795 39.1871 6.70325 42.0763 9.84875C43.32 11.2033 44.669 12.6211 46.4505 14.4459C46.6072 14.6063 46.7644 14.7664 46.9214 14.9264L47.14 15.1492C48.5991 16.6363 50.1611 18.1085 51.783 19.5247L51.8398 19.5737H51.8399C52.6352 20.2666 53.4578 20.958 54.2863 21.6297C55.8505 22.898 57.5174 24.1627 59.2406 25.3882C60.5774 26.3396 62.0641 27.34 63.9191 28.5366C64.5352 28.934 64.9457 29.5995 64.965 30.232C64.9826 30.807 64.6912 31.3314 64.1225 31.7486ZM52.7486 44.1764V55.7736C52.5665 55.6891 52.3326 55.6399 52.0713 55.6399H15.933C15.6717 55.6399 15.4378 55.6891 15.2557 55.7735V44.1764C15.2557 44.1074 15.493 43.9388 15.933 43.9388H52.0713C52.5113 43.9388 52.7486 44.1074 52.7486 44.1764ZM49.6405 56.6372V56.0288H52.0713C52.5113 56.0288 52.7486 56.1974 52.7486 56.2664C52.7486 56.3351 52.5113 56.5032 52.0713 56.5032H50.3204C50.0579 56.5032 49.8232 56.5527 49.6405 56.6372ZM53.1432 56.2664L53.1432 45.6663H59.6082L56.2198 51.5173L59.6082 57.3674H50.3204C49.8788 57.3674 49.6405 57.1988 49.6405 57.1298C49.6405 57.0608 49.8788 56.892 50.3204 56.892H52.0713C52.6823 56.892 53.1432 56.6232 53.1432 56.2664ZM38.9281 56.1199C38.5263 56.6639 38.1259 57.2221 37.7387 57.762C37.1021 58.6491 36.444 59.5664 35.7644 60.442C35.385 60.9304 34.8313 61.1984 34.2388 61.176C33.6077 61.1524 33.0308 60.8139 32.6561 60.2472C31.7237 58.8369 30.7019 57.4193 29.6157 56.0288H38.9954C38.9729 56.0591 38.9505 56.0895 38.9281 56.1199ZM18.362 56.637C18.1798 56.5526 17.9456 56.5032 17.6838 56.5032H15.9329C15.4929 56.5032 15.2556 56.3351 15.2556 56.2664C15.2556 56.1974 15.4929 56.0288 15.9329 56.0288H18.362V56.637ZM17.6838 57.3674H8.39353L11.7836 51.5173L8.39353 45.6663H14.861V56.2664C14.861 56.6232 15.3218 56.892 15.9329 56.892H17.6838C18.1243 56.892 18.362 57.0608 18.362 57.1298C18.362 57.1988 18.1243 57.3674 17.6838 57.3674ZM10.5466 37.6091C8.56429 36.0823 6.51013 34.5987 4.44108 33.1993C3.79115 32.7593 3.1191 32.3042 3.04511 31.4266C2.98554 30.723 3.22802 30.1733 3.78629 29.7461C4.38544 29.288 4.99905 28.827 5.59265 28.3813C6.82622 27.455 8.10162 26.4971 9.31949 25.5081C10.977 24.1627 12.4726 22.8919 13.8918 21.6236C14.319 21.242 14.7457 20.8542 15.1651 20.4667L14.9532 24.2761C14.8064 24.4497 14.6606 24.6244 14.5161 24.799C14.0749 25.3317 13.6538 25.8602 13.2643 26.3697C12.6326 27.1942 12.0424 28.0217 11.5101 28.8293C10.4481 30.4406 10.4391 31.9412 11.4829 33.4169C11.9325 34.0527 12.4079 34.6869 12.9358 35.3556C12.9358 35.3556 12.9358 35.3559 12.9359 35.3559C12.9369 35.3572 12.9379 35.3584 12.9389 35.3596C13.1001 35.5638 13.2709 35.7759 13.4607 36.0082C14.3343 37.0795 15.2937 38.1809 16.571 39.579C17.7567 40.8769 19.0575 42.1793 20.5372 43.55H17.6987C15.3894 41.4826 12.9832 39.484 10.5466 37.6091ZM20.0585 9.11987L20.2615 12.8727H15.9828L16.1917 9.11987H20.0585ZM15.4357 8.73105V7.79071H20.7854V8.73105H15.4357ZM20.0967 3.81287V7.40171H19.0665V5.37951C19.0665 4.86005 18.6376 4.43761 18.1106 4.43761C17.5835 4.43761 17.1547 4.86005 17.1547 5.37951V7.40171H16.1244V3.81287H20.0967ZM15.7051 3.42407C15.9822 2.91928 16.7359 1.86231 18.1883 1.86231C19.6597 1.86231 20.3149 2.926 20.541 3.42407H15.7051ZM18.6719 7.40171H17.5493V5.37951C17.5493 5.07448 17.801 4.82641 18.1106 4.82641C18.42 4.82641 18.6719 5.07448 18.6719 5.37951V7.40171ZM14.7893 27.4035L14.3084 26.3698L13.7951 26.3245C14.1202 25.9059 14.4639 25.4771 14.8219 25.0447C14.854 25.006 14.8866 24.9676 14.9188 24.929L14.7893 27.4035ZM15.3118 24.9325L15.3436 24.3618V24.3615L15.5858 20.0043C15.5858 20.0037 15.586 20.0032 15.5861 20.0025L15.6077 19.6121H20.6266L21.1107 28.5577L15.1516 28.028L15.3118 24.9325ZM15.9612 13.2615H20.2826L20.3593 14.6807L20.5559 18.3064L20.6056 19.2233H15.6294L15.9612 13.2615ZM27.2471 43.5498L26.2132 41.9696L28.2287 40.3589L29.4401 42.3488L31.0086 42.5863L32.675 43.5498H27.2471ZM21.1153 43.5498C19.5156 42.0822 18.1238 40.6975 16.8643 39.3188C15.633 37.9711 14.6994 36.9012 13.8527 35.8676L13.8904 35.8029L17.2796 35.106L19.7228 36.0129L19.2093 37.4317L17.8388 38.6593L19.2404 40.0146C19.2788 40.0517 19.3287 40.0702 19.3786 40.0702C19.4297 40.0702 19.4808 40.0508 19.5194 40.0119C19.5958 39.9353 19.5946 39.8122 19.5167 39.737L18.4134 38.6701L19.5479 37.654L19.9969 36.4134L20.4918 37.4748L20.5026 37.478L21.7756 39.635V41.3631L23.453 42.5942C23.4883 42.6202 23.5297 42.6327 23.5707 42.6327C23.631 42.6327 23.6904 42.6057 23.7291 42.5544C23.7942 42.4683 23.7761 42.3465 23.6888 42.2825L22.1702 41.168V39.5302L21.0533 37.6374L25.4974 38.9258L26.1343 40.5893L27.5904 40.3684L25.6899 41.8872L26.7775 43.5498H21.1153ZM33.4548 43.5498L31.1432 42.2133L29.6832 41.9922L28.3821 39.8548L26.3905 40.1569L25.7973 38.6074L20.7755 37.1516L20.1193 35.7445L17.3112 34.7024L13.7981 35.4248L13.2278 35.0919C12.7121 34.4377 12.2466 33.8166 11.8066 33.1945C10.8519 31.8447 10.8629 30.5249 11.8411 29.0409C12.3497 28.2692 12.913 27.4788 13.5142 26.6901L13.7966 26.715L12.2711 28.6219L15.3193 32.2362C15.3583 32.2824 15.4144 32.3063 15.4711 32.3063C15.5155 32.3063 15.5602 32.2916 15.5971 32.2613C15.681 32.1928 15.6924 32.0702 15.6228 31.9876L12.7788 28.6155L14.132 26.9238L14.7642 28.2827L14.8132 28.3881L14.8365 28.3903L16.5571 30.7839L18.8676 30.0793C18.9717 30.0476 19.03 29.9387 18.9978 29.8361C18.9655 29.7336 18.855 29.6762 18.751 29.7078L16.7138 30.3291L15.353 28.4361L21.3194 28.9666L22.3338 28.8784L20.63 30.0073L20.952 30.9139C20.9804 30.994 21.0568 31.0442 21.1383 31.0442C21.1599 31.0442 21.1818 31.0407 21.2034 31.0332C21.3063 30.9977 21.3605 30.8868 21.3246 30.7855L21.1032 30.1623L23.0732 28.8569L25.9305 30.9741H23.8082L21.8834 31.9386C21.7863 31.9873 21.7477 32.1043 21.797 32.2C21.8318 32.2675 21.9011 32.3063 21.973 32.3063C22.0032 32.3063 22.0337 32.2994 22.0623 32.2852L23.9028 31.3629H26.5058L28.0152 31.5979L26.9304 32.4529H24.5235L22.6838 33.911C22.5989 33.9782 22.5855 34.1006 22.6536 34.1843C22.6927 34.232 22.7499 34.2568 22.8076 34.2568C22.8509 34.2568 22.8947 34.2428 22.9311 34.214L24.6626 32.8417H27.0689L28.4556 31.7486L31.949 36.1167L29.3712 35.221L27.7208 36.4663L28.3112 37.6298C28.3458 37.698 28.4155 37.7374 28.4878 37.7373C28.5175 37.7373 28.5476 37.7307 28.576 37.7168C28.6734 37.6688 28.7128 37.552 28.6642 37.4559L28.2195 36.5796L29.4415 35.6576L32.366 36.6738L33.3418 39.7704L31.9987 40.377L31.6656 41.8637C31.6421 41.9685 31.7093 42.0722 31.8157 42.0955C31.9219 42.1186 32.0275 42.0523 32.051 41.9474L32.3416 40.6499L33.4597 40.1447L34.1332 42.2813C34.1594 42.3646 34.2373 42.4182 34.3215 42.4182C34.3409 42.4182 34.3606 42.4154 34.3801 42.4093C34.4842 42.3774 34.5423 42.2686 34.51 42.166L33.8595 40.1019L38.3241 40.5922L38.6224 41.579L36.8464 42.6107C36.7525 42.6652 36.7212 42.7844 36.7767 42.8769C36.8135 42.9384 36.8793 42.9725 36.9468 42.9725C36.9808 42.9725 37.0153 42.9639 37.0468 42.9456L38.8814 41.88L41.3214 42.6035C41.3403 42.6092 41.3594 42.6119 41.3783 42.6119C41.463 42.6119 41.5414 42.5577 41.5671 42.4734C41.5986 42.3707 41.5394 42.2623 41.435 42.2313L39.0143 41.5132L38.735 40.5894L42.0891 40.3454L43.38 41.7279L42.7854 42.4281L43.7932 43.4358C43.8318 43.4743 43.8828 43.4937 43.9337 43.4937C43.9837 43.4937 44.0338 43.4751 44.0723 43.4377C44.1499 43.3624 44.1509 43.2393 44.0743 43.1628L43.3181 42.4068L43.9048 41.7158L42.7837 40.515L47.2464 41.7405L46.4216 42.3834H44.8222C44.7133 42.3834 44.6249 42.4704 44.6249 42.5778C44.6249 42.6851 44.7133 42.7722 44.8222 42.7722H46.5588L47.6905 41.89L48.2075 42.1828C48.0082 42.3894 47.8081 42.5959 47.6083 42.8006C47.3633 43.0515 47.1167 43.3009 46.869 43.5498H33.4548ZM37.3168 13.3193C37.3168 13.3382 37.3169 13.3567 37.3172 13.3747C37.1316 13.3211 36.9384 13.2933 36.7461 13.2933C35.644 13.2933 34.7474 14.1764 34.7474 15.2617C34.7474 16.3476 35.644 17.231 36.7461 17.231C36.7827 17.231 36.8183 17.2318 36.8536 17.2326C36.8914 17.2334 36.9288 17.2343 36.9666 17.2343C37.0045 17.2343 37.0431 17.2334 37.0827 17.231H41.9969C41.9693 17.3618 41.9537 17.4955 41.9537 17.6314C41.9537 18.7133 42.8466 19.5936 43.9443 19.5936H48.3035C48.887 20.183 49.4285 20.7401 49.9475 21.285H49.0091C48.9001 21.285 48.8118 21.3721 48.8118 21.4794C48.8118 21.5868 48.9001 21.6738 49.0091 21.6738H50.3158C50.7295 22.1123 51.1366 22.5521 51.5314 22.987H48.5625C48.4535 22.987 48.3651 23.074 48.3651 23.1814C48.3651 23.2887 48.4535 23.3758 48.5625 23.3758H51.8823C52.2442 23.7795 52.6033 24.1896 52.9549 24.5999H48.3623C48.2534 24.5999 48.165 24.687 48.165 24.7943C48.165 24.9017 48.2534 24.9887 48.3623 24.9887H53.2855C53.5819 25.3406 53.8692 25.6884 54.1433 26.0277H46.5504C46.4414 26.0277 46.3531 26.1147 46.3531 26.2221C46.3531 26.3294 46.4414 26.4165 46.5504 26.4165H54.4547L54.6173 26.6211C55.1906 27.3415 55.7803 28.0857 56.2375 28.8977H53.6339C53.5249 28.8977 53.4366 28.9847 53.4366 29.0921C53.4366 29.1995 53.5249 29.2864 53.6339 29.2864H56.4434C56.4639 29.329 56.4842 29.3713 56.5024 29.4117C56.7188 29.8899 56.7298 30.1255 56.7171 30.2234L56.7155 30.2468C56.7108 30.9174 56.5645 31.478 56.3569 31.965C56.3223 31.9357 56.2781 31.9174 56.229 31.9174H44.1698C44.0609 31.9174 43.9725 32.0045 43.9725 32.1119C43.9725 32.2193 44.0609 32.3063 44.1698 32.3063H56.1964C56.0426 32.6053 55.8705 32.8762 55.702 33.1277C55.6272 33.2388 55.552 33.3494 55.4763 33.46H50.5583C50.4493 33.46 50.361 33.5471 50.361 33.6545C50.361 33.7618 50.4493 33.8489 50.5583 33.8489H55.2083C54.9632 34.2009 54.7144 34.5486 54.4652 34.8877H50.5583C50.4493 34.8877 50.361 34.9748 50.361 35.0821C50.361 35.1895 50.4493 35.2765 50.5583 35.2765H54.1768C53.4871 36.1977 52.7554 37.1142 51.9477 38.0684C51.6036 38.4764 51.2482 38.8871 50.8913 39.289C50.4347 39.8052 49.9601 40.3271 49.4801 40.841C49.2711 41.0667 49.0552 41.2963 48.8383 41.5237C48.7221 41.6461 48.6036 41.7691 48.486 41.8919L47.7499 41.4751L42.1896 39.9482L38.4796 40.2181L33.7317 39.6968L32.7026 36.4307L28.6426 31.3543C28.6422 31.3539 28.6421 31.3534 28.6418 31.353C28.6415 31.3526 28.6411 31.3523 28.6408 31.352L28.5948 31.2946L28.5107 31.2815C28.5102 31.2814 28.5096 31.2813 28.509 31.2811L26.6005 30.9839L23.1376 28.4181L21.5055 28.5602L20.9532 18.3454C24.0847 15.0882 26.8051 12.5849 29.5086 10.4726C30.2179 9.91838 30.9515 9.34538 31.7311 8.85606C33.1764 7.94916 34.6413 8.10381 36.4809 9.35695C37.1051 9.78259 37.7334 10.2298 38.3522 10.6873C37.6831 11.4088 37.3168 12.3347 37.3168 13.3193ZM44.0181 15.6735C43.9928 15.6723 43.9681 15.6717 43.9443 15.6717C43.1528 15.6717 42.4372 16.1367 42.1217 16.8422H37.0765L37.0636 16.8426C36.9939 16.8471 36.9286 16.8454 36.8625 16.8439C36.8242 16.843 36.7857 16.8422 36.7461 16.8422C35.8616 16.8422 35.142 16.1331 35.142 15.2617C35.142 14.3907 35.8616 13.6821 36.7461 13.6821C36.9867 13.6821 37.2294 13.7362 37.448 13.8388L37.7708 13.9901L37.7288 13.6403C37.7169 13.542 37.7114 13.4399 37.7114 13.3193C37.7114 12.4208 38.05 11.5763 38.6681 10.9227C40.5047 12.2978 42.336 13.8331 44.1163 15.4905C44.0814 15.5505 44.0482 15.6114 44.0181 15.6735ZM45.5836 16.8906C46.2381 17.5331 47.074 18.3565 47.9178 19.2048H43.9443C43.0643 19.2048 42.3484 18.499 42.3484 17.6314C42.3484 17.4491 42.3794 17.2713 42.4406 17.1032L42.441 17.1022C42.6676 16.4792 43.2716 16.0605 43.9443 16.0605C43.9972 16.0605 44.0559 16.0642 44.1185 16.0713L44.2663 16.0881L44.3234 15.9529C44.3498 15.8902 44.3799 15.8284 44.4122 15.7675C44.805 16.1365 45.1983 16.5123 45.5836 16.8906ZM65.3594 30.2201C65.336 29.453 64.8669 28.6832 64.1353 28.2111C62.2854 27.0179 60.8035 26.0207 59.4716 25.0728C57.7551 23.852 56.0949 22.5925 54.537 21.3293C53.6927 20.6448 52.8546 19.9397 52.0455 19.2335L51.993 19.1884C50.3973 17.7926 48.8603 16.343 47.4237 14.879L47.2052 14.6561C47.0483 14.4963 46.8914 14.3365 46.7349 14.1762C44.9564 12.3543 43.6097 10.9392 42.3689 9.58779C39.4907 6.45417 37.2401 3.72074 35.2858 0.985243C34.8447 0.367126 34.2055 0.0344117 33.444 0.0234239C32.3061 -0.0293456 31.6275 0.670702 31.115 1.36317C30.4928 2.20242 29.8748 3.06588 29.2769 3.90096L29.1711 4.04888C26.563 7.68846 23.5858 11.084 20.7318 14.2621L20.4538 9.11977H21.18V7.4018H20.4913V3.81277H21.0914L21.017 3.56355C21.0109 3.54305 20.3907 1.55155 18.3079 1.47699V0.214906C18.3079 0.107594 18.2195 0.0205078 18.1106 0.0205078C18.0016 0.0205078 17.9133 0.107594 17.9133 0.214906V1.48604C15.9514 1.65011 15.216 3.53061 15.2085 3.55054L15.1093 3.81277H15.7298V7.4018H15.0411V9.11977H15.7965L15.2264 19.3733C15.2231 19.3876 15.221 19.4023 15.221 19.4176C15.221 19.4239 15.2222 19.4297 15.2229 19.4357L15.1964 19.9033C14.6826 20.3819 14.1552 20.8634 13.6267 21.3354C12.2122 22.5997 10.7212 23.8663 9.06851 25.2079C7.85647 26.1922 6.58403 27.1478 5.35342 28.0719C4.75922 28.5182 4.14471 28.9796 3.54432 29.4388C2.88155 29.946 2.58126 30.6255 2.65179 31.4587C2.74136 32.52 3.52556 33.0511 4.21762 33.5197C6.28006 34.9146 8.32773 36.3935 10.3037 37.9154C12.6192 39.697 14.9057 41.5914 17.1087 43.5498H15.9329C15.3218 43.5498 14.861 43.8191 14.861 44.1763V45.2774H7.71391L11.3292 51.5172L7.71391 57.7561H17.6838C18.2955 57.7561 18.7566 57.4869 18.7566 57.1296V56.0286H29.1163C30.2659 57.4871 31.3456 58.9773 32.3254 60.4593C32.7711 61.1331 33.463 61.5359 34.2239 61.5643C34.2516 61.5654 34.2794 61.5658 34.3069 61.5658C34.9956 61.5658 35.6372 61.2454 36.0778 60.6781C36.7621 59.7966 37.4223 58.8762 38.0609 57.9862C38.4473 57.4474 38.847 56.8904 39.2475 56.3482C39.3261 56.2412 39.4057 56.1349 39.4855 56.0286H49.2459V57.1296C49.2459 57.4869 49.7078 57.7561 50.3204 57.7561H60.2878L56.6741 51.5172L60.2878 45.2774H53.1432V44.1763C53.1432 43.8191 52.6823 43.5498 52.0713 43.5498H50.5512C50.7147 43.3914 50.8775 43.2324 51.0424 43.0748C52.6759 41.5116 54.4315 39.9181 56.2548 38.3433C56.2658 38.3344 56.2766 38.3252 56.2873 38.3156L56.2984 38.3059C56.8843 37.8003 57.5072 37.2811 58.1502 36.7628C58.7643 36.2666 59.4182 35.7528 60.0942 35.2355C60.6902 34.7778 61.3085 34.3115 61.9843 33.8096C62.7785 33.2184 63.5924 32.6213 64.3581 32.0603H64.3582C65.213 31.4334 65.3744 30.7136 65.3594 30.2201Z" fill="white"/>
<path d="M24.0075 53.3572H19.8055V51.6186H20.4838V47.8335H19.8055V46.095H24.0075V47.8335H23.3346V51.6186H24.0075V53.3572Z" fill="white"/>
<path d="M31.9186 53.3572H24.8871V51.6186H25.4593V47.8335H24.8765V46.095H31.9186V48.4182H29.9846V47.8335H28.3101V48.9508H29.7672V50.4283H28.3101V51.6186H29.9846V51.0339H31.9186V53.3572Z" fill="white"/>
<path d="M40.0576 53.3572H33.0262V51.6186H33.5984V47.8335H33.0155V46.095H40.0576V48.4182H38.1236V47.8335H36.4492V48.9508H37.9063V50.4283H36.4492V51.6186H38.1236V51.0339H40.0576V53.3572Z" fill="white"/>
<path d="M48.1965 53.3572H41.1651V51.6186H41.7373V47.8335H41.1544V46.095H48.1965V48.4182H46.2625V47.8335H44.5881V48.9508H46.0452V50.4283H44.5881V51.6186H46.2625V51.0339H48.1965V53.3572Z" fill="white"/>
<path d="M4.40837 66.9476H3.83766V66.1463H4.40837C4.47634 66.3644 4.6046 66.4733 4.79302 66.4733C4.92916 66.4733 4.99723 66.4194 4.99723 66.3116C4.99723 66.2554 4.97356 66.2086 4.92611 66.1715C4.87501 66.1308 4.76757 66.0746 4.60342 66.0027C4.39683 65.9104 4.2449 65.8308 4.14754 65.7637C4.05648 65.7026 3.97872 65.6182 3.9142 65.5104C3.8498 65.4039 3.81763 65.2859 3.81763 65.1565C3.81763 64.9243 3.8942 64.7427 4.04739 64.6123C4.19932 64.4817 4.38637 64.4165 4.60884 64.4165C4.83131 64.4165 5.01963 64.4788 5.17412 64.6033V64.4488H5.74838V65.1601H5.18132C5.11207 64.9638 4.98935 64.8656 4.81315 64.8656C4.68915 64.8656 4.62709 64.9176 4.62709 65.0218C4.62709 65.0721 4.64476 65.1099 4.67996 65.135C4.71401 65.1614 4.82399 65.2195 5.00997 65.3093C5.25917 65.4314 5.42569 65.5206 5.50955 65.5769C5.55205 65.6045 5.59548 65.6431 5.63987 65.6928C5.68426 65.7426 5.72106 65.7937 5.75025 65.8464C5.81704 65.9638 5.85038 66.0907 5.85038 66.2272C5.85038 66.4368 5.77137 66.614 5.61342 66.759C5.45538 66.9062 5.25609 66.9798 5.01539 66.9798C4.79184 66.9798 4.5894 66.9146 4.40837 66.7841V66.9476Z" fill="white"/>
<path d="M8.11658 66.9475H6.69263V66.3493H6.91143V65.0469H6.61971V65.5014H6.14392V64.4487H8.658V65.5014H8.18219V65.0469H7.89234V66.3493H8.11658V66.9475Z" fill="white"/>
<path d="M9.10664 65.0469H8.9115V64.4487H10.2097V65.0469H10.0893V65.8894C10.0893 66.0906 10.1088 66.2277 10.1476 66.3007C10.1865 66.3727 10.2564 66.4085 10.3574 66.4085C10.4411 66.4085 10.502 66.378 10.5396 66.3169C10.5773 66.257 10.5962 66.1343 10.5962 65.9487V65.0469H10.4685V64.4487H11.422V65.0469H11.2215V65.9523C11.2215 66.1834 11.1874 66.3727 11.1194 66.5199C11.0513 66.6661 10.9382 66.7805 10.7803 66.8631C10.6222 66.9457 10.4278 66.987 10.1968 66.987C10.0109 66.987 9.84624 66.9648 9.7028 66.9205C9.55688 66.8775 9.44155 66.8116 9.35632 66.7229C9.27129 66.6355 9.20874 66.5296 9.16858 66.4051C9.12724 66.284 9.10664 66.0984 9.10664 65.8481V65.0469Z" fill="white"/>
<path d="M12.8952 65.0469V66.3492H12.9881C13.2191 66.3492 13.3692 66.2888 13.4385 66.1679C13.5065 66.0469 13.5406 65.8948 13.5406 65.7116C13.5406 65.6014 13.5261 65.4924 13.4969 65.3847C13.4664 65.2768 13.4129 65.1936 13.3365 65.1349C13.261 65.0763 13.1261 65.0469 12.9316 65.0469H12.8952ZM12.8952 66.9475H11.7156V66.3492L11.9144 66.3493V65.0469H11.7156V64.4487H12.9298C13.2069 64.4487 13.4331 64.4656 13.608 64.499C13.7843 64.5325 13.9502 64.6014 14.1058 64.7055C14.2602 64.811 14.3816 64.9535 14.4704 65.1331C14.5141 65.2194 14.5475 65.3116 14.5706 65.4098C14.5938 65.508 14.6053 65.611 14.6053 65.7188C14.6053 65.9356 14.5585 66.1332 14.465 66.3115C14.3726 66.4888 14.2552 66.6247 14.1131 66.7193C13.9744 66.814 13.8225 66.8756 13.6573 66.9043C13.4932 66.9331 13.2391 66.9475 12.8952 66.9475Z" fill="white"/>
<path d="M17.3802 66.9475H14.9609V66.3493H15.1578V65.0469H14.9572V64.4487H17.3802V65.2481H16.7148V65.0469H16.1386V65.4313H16.64V65.9397H16.1386V66.3493H16.7148V66.148H17.3802V66.9475Z" fill="white"/>
<path d="M18.7548 66.9475H17.7137V66.3493H17.9362V65.0469H17.7137V64.4487H18.9153L19.8378 65.7547V65.0469H19.6318V64.4487H20.6546V65.0469H20.434V66.9798H19.599L18.5306 65.4691V66.3493H18.7548V66.9475Z" fill="white"/>
<path d="M22.8952 66.9475H21.4713V66.3493H21.69V65.0469H21.3984V65.5014H20.9225V64.4487H23.4367V65.5014H22.9609V65.0469H22.671V66.3493H22.8951V66.9475H22.8952Z" fill="white"/>
<path d="M25.8797 65.9077V66.3998H26.1003C26.2413 66.3998 26.3428 66.3819 26.4048 66.346C26.4655 66.3101 26.4959 66.2465 26.4959 66.1556C26.4959 66.0705 26.4686 66.0076 26.414 65.9669C26.3592 65.9274 26.2534 65.9077 26.0967 65.9077H25.8797ZM25.8797 64.9969V65.4532H26.0967C26.2437 65.4532 26.3403 65.4322 26.3866 65.3903C26.4303 65.3484 26.4522 65.2934 26.4522 65.225C26.4522 65.1663 26.4322 65.1137 26.3921 65.067C26.3519 65.0202 26.2419 64.9969 26.062 64.9969H25.8797ZM26.113 66.9478H24.6782V66.3496H24.8989V65.0472H24.6782V64.449H26.2279C26.5317 64.449 26.767 64.4664 26.9336 64.5011C27.0976 64.537 27.2264 64.6083 27.3201 64.7149C27.4136 64.8239 27.4604 64.9507 27.4604 65.0957C27.4604 65.2371 27.4161 65.3496 27.3274 65.4334C27.2361 65.5197 27.1255 65.5795 26.9955 65.6131C27.1742 65.6657 27.3116 65.7472 27.4075 65.8573C27.5049 65.97 27.5534 66.0963 27.5534 66.2364C27.5534 66.404 27.4986 66.5465 27.3893 66.6639C27.2799 66.7801 27.1298 66.8561 26.939 66.8921C26.7505 66.9292 26.4753 66.9478 26.113 66.9478Z" fill="white"/>
<path d="M29.054 64.9969V65.4729H29.1633C29.3068 65.4729 29.404 65.4687 29.455 65.4604C29.5097 65.452 29.5559 65.4281 29.5936 65.3885C29.6313 65.3513 29.6501 65.3005 29.6501 65.2358C29.6501 65.1712 29.6313 65.1197 29.5936 65.0814C29.5559 65.0418 29.508 65.0179 29.4496 65.0095C29.3936 65.0011 29.2915 64.9969 29.1432 64.9969H29.054ZM29.2453 66.9478H27.8671V66.3496H28.0732V65.0473H27.8671V64.449H29.2453C29.3693 64.449 29.4842 64.4511 29.5899 64.4553C29.6957 64.4596 29.7863 64.4655 29.8616 64.4733C29.9369 64.4811 30.0062 64.4915 30.0694 64.5048C30.2469 64.5418 30.3909 64.6227 30.5015 64.7473C30.6134 64.8741 30.6692 65.0238 30.6692 65.1964C30.6692 65.3256 30.6352 65.4431 30.5672 65.5484C30.499 65.6525 30.4097 65.7292 30.2992 65.7783L30.6492 66.3496H30.8316V66.9478H29.9182L29.3657 65.9274H29.054V66.3496H29.2453V66.9478Z" fill="white"/>
<path d="M32.1769 65.083L31.938 65.7746H32.3921L32.1769 65.083ZM31.938 66.9478H30.9335V66.3495H31.1266L31.6026 65.0471H31.3983V64.449H33.2215V65.0471H33.0173L33.5023 66.3495H33.6883V66.9478H32.3646V66.3998H32.587L32.4904 66.0855H31.8414L31.7302 66.3998H31.938V66.9478Z" fill="white"/>
<path d="M34.8914 66.9475H33.8505V66.3493H34.0728V65.0469H33.8505V64.4487H35.052L35.9745 65.7547V65.0469H35.7685V64.4487H36.7912V65.0469H36.5706V66.9798H35.7356L34.6673 65.4691V66.3493H34.8914V66.9475Z" fill="white"/>
<path d="M39.0958 65.8464L39.754 66.0746C39.698 66.3416 39.5699 66.5601 39.3693 66.7302C39.1664 66.9014 38.8868 66.987 38.5307 66.987C38.0445 66.987 37.6847 66.862 37.4514 66.6117C37.2168 66.3626 37.0995 66.0584 37.0995 65.699C37.0995 65.3374 37.2144 65.0302 37.4441 64.7775C37.6737 64.5248 37.9722 64.3984 38.3393 64.3984C38.6371 64.3984 38.8796 64.471 39.0666 64.6159V64.4488H39.6756V65.3614H39.043C39.0102 65.2476 38.9549 65.1578 38.877 65.0919C38.7993 65.0272 38.7106 64.9949 38.6109 64.9949C38.3362 64.9949 38.1989 65.2279 38.1989 65.6938C38.1989 66.1607 38.3411 66.3943 38.6255 66.3943C38.8747 66.3943 39.0315 66.2117 39.0958 65.8464" fill="white"/>
<path d="M41.4133 66.9475H40.0787V66.3493H40.2701V65.0469H40.0751V64.4487H41.4133V65.0469H41.2509V65.4277H41.8381V65.0469H41.6741V64.4487H43.0103V65.0469H42.8189V66.3493H43.0103V66.9475H41.6741V66.3493H41.8381V65.9397H41.2509V66.3493H41.4133V66.9475Z" fill="white"/>
<path d="M45.2565 66.9475H44.2738V66.3493H44.4689V65.0469H44.2683V64.4487H45.7979L46.1716 65.4134L46.5545 64.4487H48.0751V65.0469H47.8764V66.3493H48.0806V66.9475H46.757V66.3493H46.9594V64.9535L46.1935 66.9475H45.8143L45.056 64.9715V66.3493H45.2565V66.9475Z" fill="white"/>
<path d="M49.5188 65.083L49.28 65.7746H49.734L49.5188 65.083ZM49.28 66.9478H48.2754V66.3495H48.4686L48.9445 65.0471H48.7402V64.449H50.5634V65.0471H50.3593L50.8443 66.3495H51.0302V66.9478H49.7066V66.3998H49.929L49.8324 66.0855H49.1834L49.0722 66.3998H49.28V66.9478Z" fill="white"/>
<path d="M52.2336 66.9475H51.1925V66.3493H51.415V65.0469H51.1925V64.4487H52.394L53.3166 65.7547V65.0469H53.1105V64.4487H54.1334V65.0469H53.9128V66.9798H53.0778L52.0094 65.4691V66.3493H52.2336V66.9475Z" fill="white"/>
<path d="M55.8363 66.9475H54.3905V66.3493H54.6238V65.0469H54.3905V64.4487H55.8363V65.0469H55.6046V66.3493H55.8363V66.9475Z" fill="white"/>
<path d="M57.3604 64.9969V65.4657H57.5517C57.6855 65.4657 57.7827 65.4502 57.8435 65.4191C57.9019 65.3879 57.931 65.3274 57.931 65.2377C57.931 65.179 57.9152 65.1292 57.8836 65.0885C57.8532 65.049 57.8125 65.0238 57.7614 65.013C57.7128 65.0024 57.6302 64.9969 57.5136 64.9969H57.3604ZM57.6157 66.9478H56.1333V66.3496H56.3795V65.0473H56.1333V64.449H57.6886C58.0459 64.449 58.3072 64.4832 58.4725 64.5514C58.6378 64.6209 58.7594 64.7154 58.8372 64.8353C58.9149 64.955 58.9538 65.0861 58.9538 65.2286C58.9538 65.4047 58.9076 65.5508 58.8153 65.667C58.723 65.7844 58.6007 65.8694 58.4488 65.9221C58.2993 65.9735 58.0684 65.9994 57.756 65.9994H57.3604V66.3496H57.6157V66.9478Z" fill="white"/>
<path d="M60.0861 65.083L59.8472 65.7746H60.3012L60.0861 65.083ZM59.8472 66.9478H58.8427V66.3495H59.0358L59.5118 65.0471H59.3075V64.449H61.1307V65.0471H60.9266L61.4115 66.3495H61.5975V66.9478H60.2738V66.3998H60.4963L60.3997 66.0855H59.7507L59.6394 66.3998H59.8472V66.9478Z" fill="white"/>
<path d="M64.1845 66.9475H61.7705V66.3493H61.9985V65.0469H61.7705V64.4487H63.22V65.0469H62.9793V66.3493H63.5791V65.9488H64.1845V66.9475Z" fill="white"/>
</svg>
