<svg width="288" height="284" viewBox="0 0 288 284" fill="none" xmlns="http://www.w3.org/2000/svg">
<path d="M91.9958 91.8714H114.272C114.734 91.8714 115.107 91.5023 115.107 91.0474C115.107 90.5925 114.734 90.2234 114.272 90.2234H91.9958C91.5345 90.2234 91.1602 90.5925 91.1602 91.0474C91.1602 91.5023 91.5345 91.8714 91.9958 91.8714Z" fill="white"/>
<path d="M117.633 91.0474C117.633 91.5023 118.007 91.8714 118.469 91.8714H181.27C181.732 91.8714 182.106 91.5023 182.106 91.0474C182.106 90.5925 181.732 90.2234 181.27 90.2234H118.469C118.007 90.2234 117.633 90.5925 117.633 91.0474Z" fill="white"/>
<path d="M188.64 91.8714H198.504C198.966 91.8714 199.34 91.5023 199.34 91.0474C199.34 90.5925 198.966 90.2234 198.504 90.2234H188.64C188.179 90.2234 187.805 90.5925 187.805 91.0474C187.805 91.5023 188.179 91.8714 188.64 91.8714Z" fill="white"/>
<path d="M112.97 97.8553C112.97 97.4005 112.596 97.0313 112.135 97.0313H91.9959C91.5342 97.0313 91.1602 97.4005 91.1602 97.8553C91.1602 98.3102 91.5342 98.6793 91.9959 98.6793H112.135C112.596 98.6793 112.97 98.3102 112.97 97.8553Z" fill="white"/>
<path d="M130.773 99.0868C131.234 99.0868 131.609 98.7175 131.609 98.2627C131.609 97.8078 131.234 97.4387 130.773 97.4387H119.594C119.132 97.4387 118.758 97.8078 118.758 98.2627C118.758 98.7175 119.132 99.0868 119.594 99.0868H130.773Z" fill="white"/>
<path d="M179.608 99.0868C180.069 99.0868 180.444 98.7175 180.444 98.2627C180.444 97.8078 180.069 97.4387 179.608 97.4387H138.508C138.046 97.4387 137.672 97.8078 137.672 98.2627C137.672 98.7175 138.046 99.0868 138.508 99.0868H179.608Z" fill="white"/>
<path d="M189.141 98.2627C189.141 98.7175 189.515 99.0868 189.976 99.0868H200.005C200.466 99.0868 200.841 98.7175 200.841 98.2627C200.841 97.8078 200.466 97.4387 200.005 97.4387H189.976C189.515 97.4387 189.141 97.8078 189.141 98.2627Z" fill="white"/>
<path d="M92.2148 105.097C92.2148 105.551 92.5893 105.921 93.0506 105.921H163.716C164.177 105.921 164.552 105.551 164.552 105.097C164.552 104.642 164.177 104.273 163.716 104.273H93.0506C92.5893 104.273 92.2148 104.642 92.2148 105.097Z" fill="white"/>
<path d="M169.137 105.097C169.137 105.551 169.511 105.921 169.972 105.921H198.524C198.985 105.921 199.359 105.551 199.359 105.097C199.359 104.642 198.985 104.273 198.524 104.273H169.972C169.511 104.273 169.137 104.642 169.137 105.097Z" fill="white"/>
<path d="M109.449 111.151C109.449 110.696 109.075 110.326 108.614 110.326H93.0505C92.5888 110.326 92.2148 110.696 92.2148 111.151C92.2148 111.605 92.5888 111.975 93.0505 111.975H108.614C109.075 111.975 109.449 111.605 109.449 111.151Z" fill="white"/>
<path d="M160.926 111.151C160.926 110.696 160.552 110.326 160.091 110.326H114.25C113.788 110.326 113.414 110.696 113.414 111.151C113.414 111.605 113.788 111.975 114.25 111.975H160.091C160.552 111.975 160.926 111.605 160.926 111.151Z" fill="white"/>
<path d="M193.386 111.151C193.386 110.696 193.012 110.326 192.551 110.326H169.972C169.511 110.326 169.137 110.696 169.137 111.151C169.137 111.605 169.511 111.975 169.972 111.975H192.551C193.012 111.975 193.386 111.605 193.386 111.151Z" fill="white"/>
<path d="M119.293 117.638C119.293 117.183 118.918 116.814 118.457 116.814H95.4411C94.9798 116.814 94.6055 117.183 94.6055 117.638C94.6055 118.093 94.9798 118.462 95.4411 118.462H118.457C118.918 118.462 119.293 118.093 119.293 117.638Z" fill="white"/>
<path d="M172.155 116.809H128.383C127.921 116.809 127.547 117.179 127.547 117.633C127.547 118.088 127.921 118.457 128.383 118.457H172.155C172.616 118.457 172.991 118.088 172.991 117.633C172.991 117.179 172.616 116.809 172.155 116.809Z" fill="white"/>
<path d="M181.828 117.638C181.828 118.093 182.202 118.462 182.664 118.462H233.848C234.309 118.462 234.683 118.093 234.683 117.638C234.683 117.183 234.309 116.814 233.848 116.814H182.664C182.202 116.814 181.828 117.183 181.828 117.638Z" fill="white"/>
<path d="M140.943 123.315C140.943 122.86 140.568 122.491 140.107 122.491H107.008C106.546 122.491 106.172 122.86 106.172 123.315C106.172 123.769 106.546 124.139 107.008 124.139H140.107C140.568 124.139 140.943 123.769 140.943 123.315Z" fill="white"/>
<path d="M163.876 123.315C163.876 122.86 163.502 122.491 163.04 122.491H151.093C150.632 122.491 150.258 122.86 150.258 123.315C150.258 123.769 150.632 124.139 151.093 124.139H163.04C163.502 124.139 163.876 123.769 163.876 123.315Z" fill="white"/>
<path d="M150.833 148.709C150.833 148.254 150.459 147.885 149.997 147.885H138.05C137.589 147.885 137.215 148.254 137.215 148.709C137.215 149.164 137.589 149.533 138.05 149.533H149.997C150.459 149.533 150.833 149.164 150.833 148.709Z" fill="white"/>
<path d="M223.148 123.315C223.148 122.86 222.774 122.491 222.312 122.491H174.965C174.503 122.491 174.129 122.86 174.129 123.315C174.129 123.769 174.503 124.139 174.965 124.139H222.312C222.774 124.139 223.148 123.769 223.148 123.315Z" fill="white"/>
<path d="M150.691 129.525C150.691 129.07 150.316 128.701 149.855 128.701H112.316C111.855 128.701 111.48 129.07 111.48 129.525C111.48 129.979 111.855 130.349 112.316 130.349H149.855C150.316 130.349 150.691 129.979 150.691 129.525Z" fill="white"/>
<path d="M153.519 130.349H180.591C181.052 130.349 181.426 129.979 181.426 129.525C181.426 129.07 181.052 128.701 180.591 128.701H153.519C153.058 128.701 152.684 129.07 152.684 129.525C152.684 129.979 153.058 130.349 153.519 130.349Z" fill="white"/>
<path d="M192.762 129.525C192.762 129.979 193.136 130.349 193.597 130.349H235.849C236.311 130.349 236.685 129.979 236.685 129.525C236.685 129.07 236.311 128.701 235.849 128.701H193.597C193.136 128.701 192.762 129.07 192.762 129.525Z" fill="white"/>
<path d="M174.326 136.116C174.326 135.661 173.952 135.292 173.491 135.292H126.8C126.339 135.292 125.965 135.661 125.965 136.116C125.965 136.571 126.339 136.94 126.8 136.94H173.491C173.952 136.94 174.326 136.571 174.326 136.116Z" fill="white"/>
<path d="M136.371 142.655C136.371 143.11 136.745 143.479 137.207 143.479H207.872C208.334 143.479 208.708 143.11 208.708 142.655C208.708 142.2 208.334 141.831 207.872 141.831H137.207C136.745 141.831 136.371 142.2 136.371 142.655Z" fill="white"/>
<path d="M204.247 149.533C204.708 149.533 205.082 149.164 205.082 148.709C205.082 148.254 204.708 147.885 204.247 147.885H158.406C157.945 147.885 157.57 148.254 157.57 148.709C157.57 149.164 157.945 149.533 158.406 149.533H204.247Z" fill="white"/>
<path d="M216.325 154.368H145.187C144.726 154.368 144.352 154.737 144.352 155.192C144.352 155.647 144.726 156.016 145.187 156.016H216.325C216.787 156.016 217.161 155.647 217.161 155.192C217.161 154.737 216.787 154.368 216.325 154.368Z" fill="white"/>
<path d="M214.701 162.77H195.918C195.456 162.77 195.082 163.14 195.082 163.594C195.082 164.049 195.456 164.418 195.918 164.418H214.701C215.162 164.418 215.536 164.049 215.536 163.594C215.536 163.14 215.162 162.77 214.701 162.77Z" fill="white"/>
<path d="M190.742 162.77H143.394C142.933 162.77 142.559 163.14 142.559 163.594C142.559 164.049 142.933 164.418 143.394 164.418H190.742C191.203 164.418 191.578 164.049 191.578 163.594C191.578 163.14 191.203 162.77 190.742 162.77Z" fill="white"/>
<path d="M210.167 169.453H197.64C197.179 169.453 196.805 169.822 196.805 170.277C196.805 170.732 197.179 171.101 197.64 171.101H210.167C210.628 171.101 211.003 170.732 211.003 170.277C211.003 169.822 210.628 169.453 210.167 169.453Z" fill="white"/>
<path d="M124.771 82.7207C124.882 82.7701 124.998 82.7931 125.113 82.7931C125.432 82.7931 125.736 82.6123 125.876 82.3069C125.967 82.1063 128.182 77.4244 134.293 79.5056L134.99 79.7404L135.316 79.0899C135.329 79.0655 136.556 76.6618 138.816 76.1303C140.235 75.7962 141.818 76.2642 143.518 77.5217C143.888 77.7949 144.412 77.7207 144.688 77.3569C144.965 76.9927 144.89 76.4764 144.521 76.2032C142.399 74.6343 140.344 74.0714 138.413 74.5308C136.2 75.0578 134.799 76.7957 134.181 77.7422C127.13 75.7434 124.379 81.5702 124.351 81.6312C124.162 82.0466 124.35 82.534 124.771 82.7207Z" fill="white"/>
<path d="M105.108 66.7368C105.264 66.5802 108.982 62.9412 113.99 66.977L114.562 67.4389L115.096 66.9338C115.116 66.9152 117.083 65.0812 119.405 65.3495C120.859 65.5163 122.184 66.4953 123.341 68.2584C123.501 68.5019 123.769 68.6346 124.043 68.6346C124.198 68.6346 124.356 68.5917 124.496 68.5023C124.884 68.2551 124.995 67.7446 124.744 67.3626C123.303 65.167 121.571 63.9387 119.599 63.7125C117.336 63.4521 115.413 64.6062 114.501 65.2835C108.585 61.0047 103.962 65.5361 103.915 65.5836C103.592 65.9086 103.597 66.4302 103.927 66.7487C104.257 67.0676 104.786 67.0623 105.108 66.7368Z" fill="white"/>
<path d="M141.55 51.5203C140.798 50.6737 139.154 49.157 136.886 48.9559C134.909 48.7821 132.959 49.6345 131.093 51.4935C130.769 51.817 130.771 52.3386 131.099 52.6588C131.427 52.9789 131.957 52.976 132.281 52.6526C133.776 51.1636 135.269 50.4697 136.725 50.5966C139.039 50.7952 140.612 52.9954 140.626 53.0156L141.045 53.618L141.701 53.2809C147.392 50.3626 150.317 54.6427 150.446 54.8368C150.606 55.0811 150.875 55.2146 151.15 55.2146C151.304 55.2146 151.46 55.1721 151.599 55.0844C151.988 54.8389 152.102 54.3291 151.853 53.9459C151.816 53.8895 148.227 48.5233 141.55 51.5203Z" fill="white"/>
<path d="M271.569 134.575C268.323 136.955 264.873 139.488 261.506 141.996C258.637 144.129 256.012 146.111 253.481 148.055C250.608 150.256 247.827 152.444 245.215 154.556C242.478 156.764 239.825 158.976 237.331 161.132L237.273 161.182C237.246 161.206 237.219 161.23 237.168 161.271C229.401 167.984 221.945 174.758 215.006 181.404C213.898 182.464 212.798 183.529 211.702 184.599H200.834C201.502 183.923 202.168 183.246 202.831 182.566C203.918 181.452 205.002 180.327 206.081 179.203C206.086 179.198 206.09 179.194 206.094 179.189C206.751 178.505 207.408 177.82 208.054 177.139C208.978 176.17 209.898 175.191 210.786 174.231C212.827 172.044 214.847 169.821 216.79 167.623C218.31 165.909 219.824 164.158 221.289 162.419C225.116 157.896 228.545 153.568 231.771 149.191C233.223 147.223 234.675 145.179 236.088 143.117V143.117C236.089 143.116 236.089 143.115 236.09 143.114C236.497 142.521 236.898 141.928 237.299 141.331C239.483 138.069 241.816 134.102 241.869 128.268C241.988 127.218 241.646 125.82 240.823 124.003C240.613 123.533 240.37 123.037 240.079 122.485C238.021 118.609 235.279 115.16 232.627 111.825L231.688 110.642C230.131 108.685 228.456 106.643 226.706 104.571C224.766 102.276 222.756 99.9698 220.732 97.7152C218.594 95.3341 216.353 92.9019 214.071 90.4859C211.392 87.6467 208.595 84.7575 205.522 81.6542C201.482 77.5672 197.366 73.508 194.231 70.4282C192.345 68.5752 190.414 66.7265 188.493 64.933L188.492 64.9326C188.488 64.928 188.483 64.9239 188.479 64.9193C180.551 57.5008 172.378 50.6448 164.186 44.5427C161.305 42.3948 158.366 40.2968 155.449 38.3071C150.221 34.7419 142.256 30.6398 133.484 36.1489C130.109 38.2692 126.968 40.7249 123.93 43.0998C112.732 51.8565 101.474 62.1802 88.6114 75.4952L87.9237 62.8003C100.368 48.9502 113.462 34.0951 124.904 18.1126L125.353 17.4851C127.881 13.9511 130.495 10.2969 133.123 6.74978C135.127 4.03913 137.536 1.55294 141.584 1.74656C144.279 1.78572 146.522 2.95385 148.07 5.12479C156.387 16.7764 165.96 28.4132 178.197 41.7464C183.464 47.4879 189.177 53.4976 196.723 61.2326C197.387 61.9128 198.052 62.5915 198.717 63.2696L199.643 64.214C205.822 70.5176 212.438 76.7577 219.307 82.7608L219.548 82.9685H219.548C222.917 85.9054 226.401 88.8362 229.91 91.6837C236.534 97.0597 243.594 102.42 250.893 107.615C256.554 111.648 262.851 115.888 270.707 120.96C273.317 122.645 275.055 125.466 275.137 128.147C275.211 130.584 273.978 132.807 271.569 134.575ZM223.397 187.255V236.413C222.626 236.055 221.635 235.846 220.528 235.846H67.4722C66.3654 235.846 65.3747 236.055 64.6034 236.412V187.255C64.6034 186.962 65.6087 186.247 67.4722 186.247H220.528C222.392 186.247 223.397 186.962 223.397 187.255ZM210.233 240.074V237.494H220.528C222.392 237.494 223.397 238.209 223.397 238.502C223.397 238.793 222.392 239.506 220.528 239.506H213.113C212.001 239.506 211.007 239.715 210.233 240.074ZM225.068 238.502L225.068 193.57H252.449L238.099 218.371L252.449 243.169H213.113C211.243 243.169 210.233 242.454 210.233 242.161C210.233 241.869 211.243 241.154 213.113 241.154H220.528C223.116 241.154 225.068 240.014 225.068 238.502ZM164.863 237.881C163.161 240.187 161.465 242.553 159.826 244.841C157.13 248.601 154.342 252.49 151.464 256.201C149.857 258.272 147.512 259.408 145.003 259.312C142.33 259.213 139.886 257.778 138.299 255.375C134.351 249.397 130.023 243.389 125.422 237.494H165.148C165.053 237.623 164.958 237.752 164.863 237.881ZM77.7597 240.072C76.9879 239.715 75.996 239.506 74.8875 239.506H67.4719C65.6084 239.506 64.6031 238.793 64.6031 238.502C64.6031 238.209 65.6084 237.494 67.4719 237.494H77.7597V240.072ZM74.8875 243.169H35.5403L49.8981 218.371L35.5403 193.57H62.9318V238.502C62.9318 240.014 64.8835 241.154 67.4719 241.154H74.8875C76.7531 241.154 77.7597 241.869 77.7597 242.161C77.7597 242.454 76.7531 243.169 74.8875 243.169ZM44.6593 159.417C36.2635 152.945 27.5635 146.657 18.8005 140.725C16.0478 138.86 13.2015 136.931 12.8882 133.211C12.6359 130.228 13.6628 127.898 16.0273 126.087C18.5648 124.145 21.1636 122.192 23.6777 120.302C28.9022 116.376 34.3039 112.315 39.462 108.123C46.4819 102.42 52.8162 97.0338 58.8271 91.6577C60.6362 90.0401 62.4437 88.3965 64.2199 86.7537L63.3225 102.901C62.7007 103.637 62.0832 104.377 61.471 105.118C59.6025 107.376 57.8189 109.616 56.1693 111.776C53.4939 115.27 50.9944 118.778 48.7398 122.201C44.242 129.031 44.2039 135.392 48.6245 141.647C50.529 144.342 52.5421 147.03 54.7779 149.865C54.7779 149.865 54.7783 149.866 54.7787 149.866C54.7829 149.872 54.787 149.877 54.7913 149.882C55.474 150.747 56.1973 151.646 57.0011 152.631C60.7014 157.172 64.7644 161.841 70.1744 167.767C75.1962 173.268 80.7053 178.789 86.9723 184.599H74.9505C65.1697 175.836 54.9789 167.364 44.6593 159.417ZM84.945 38.6568L85.8045 54.5642H67.6833L68.5678 38.6568H84.945ZM65.366 37.0086V33.0227H88.0236V37.0086H65.366ZM85.1067 16.1614V31.3738H80.7433V22.8021C80.7433 20.6002 78.927 18.8096 76.695 18.8096C74.4626 18.8096 72.6463 20.6002 72.6463 22.8021V31.3738H68.2829V16.1614H85.1067ZM66.5071 14.5134C67.6804 12.3737 70.8726 7.8934 77.0238 7.8934C83.2557 7.8934 86.0309 12.4022 86.9886 14.5134H66.5071ZM79.072 31.3738H74.3176V22.8021C74.3176 21.5092 75.3839 20.4576 76.695 20.4576C78.0053 20.4576 79.072 21.5092 79.072 22.8021V31.3738ZM62.6284 116.158L60.5916 111.776L58.4175 111.584C59.7944 109.81 61.25 107.992 62.7663 106.159C62.9021 105.995 63.0404 105.832 63.1766 105.668L62.6284 116.158ZM64.8413 105.684L64.9757 103.264V103.263L66.0016 84.7936C66.0016 84.7911 66.0024 84.7891 66.0028 84.7862L66.0943 83.1314H87.3509L89.4011 121.05L64.1627 118.804L64.8413 105.684ZM67.5914 56.2123H85.8938L86.2189 62.2279L87.0517 77.5967L87.2618 81.4834H66.1862L67.5914 56.2123ZM115.391 184.599L111.012 177.9L119.548 171.073L124.679 179.508L131.322 180.515L138.38 184.599H115.391ZM89.4207 184.599C82.6453 178.378 76.751 172.508 71.4166 166.664C66.2016 160.952 62.2474 156.417 58.6616 152.035L58.8211 151.761L73.1752 148.807L83.5232 152.651L81.3483 158.665L75.5439 163.869L81.48 169.614C81.6425 169.771 81.8539 169.849 82.0653 169.849C82.2818 169.849 82.4982 169.767 82.6616 169.602C82.985 169.277 82.98 168.755 82.6503 168.437L77.9774 163.915L82.7823 159.607L84.6839 154.349L86.7801 158.848L86.8256 158.861L92.2173 168.004V175.33L99.3216 180.548C99.4712 180.658 99.6462 180.711 99.82 180.711C100.075 180.711 100.327 180.597 100.491 180.379C100.766 180.014 100.69 179.498 100.32 179.227L93.8885 174.502V167.56L89.1579 159.537L107.98 164.998L110.678 172.05L116.845 171.113L108.795 177.551L113.402 184.599H89.4207ZM141.682 184.599L131.892 178.933L125.708 177.996L120.198 168.936L111.763 170.217L109.25 163.649L87.9813 157.478L85.2024 151.513L73.3094 147.096L58.4301 150.158L56.0147 148.747C53.8307 145.974 51.8593 143.341 49.9954 140.704C45.9521 134.983 45.9989 129.389 50.1416 123.098C52.296 119.827 54.6814 116.477 57.228 113.133L58.4238 113.239L51.963 121.322L64.873 136.642C65.038 136.838 65.2758 136.939 65.516 136.939C65.7041 136.939 65.8933 136.877 66.0496 136.749C66.4047 136.459 66.4533 135.939 66.1582 135.589L54.1131 121.295L59.8445 114.124L62.5219 119.884L62.7295 120.331L62.8282 120.34L70.1155 130.486L79.901 127.5C80.3418 127.365 80.5887 126.904 80.4525 126.469C80.3158 126.034 79.8475 125.791 79.4071 125.925L70.779 128.558L65.0159 120.535L90.2852 122.783L94.5814 122.409L87.3654 127.195L88.7292 131.038C88.8496 131.377 89.173 131.59 89.5181 131.59C89.6097 131.59 89.7024 131.575 89.7939 131.543C90.2297 131.393 90.459 130.923 90.307 130.493L89.3694 127.852L97.713 122.318L109.814 131.293H100.826L92.674 135.381C92.2624 135.587 92.0991 136.083 92.308 136.489C92.4555 136.775 92.7488 136.94 93.0533 136.94C93.1812 136.94 93.3103 136.91 93.4315 136.85L101.226 132.941H112.251L118.644 133.937L114.05 137.561H103.855L96.0638 143.742C95.7041 144.027 95.6472 144.545 95.9359 144.9C96.1014 145.102 96.3438 145.207 96.5882 145.207C96.7716 145.207 96.9571 145.148 97.1113 145.026L104.445 139.209H114.636L120.509 134.576L135.304 153.091L124.387 149.294L117.397 154.573L119.897 159.505C120.044 159.794 120.339 159.961 120.645 159.96C120.771 159.96 120.899 159.932 121.019 159.873C121.431 159.67 121.599 159.175 121.392 158.768L119.509 155.053L124.685 151.145L137.071 155.452L141.203 168.578L135.515 171.15L134.104 177.452C134.005 177.896 134.29 178.335 134.74 178.434C135.19 178.532 135.637 178.251 135.736 177.806L136.967 172.306L141.703 170.165L144.555 179.222C144.666 179.575 144.996 179.802 145.353 179.802C145.435 179.802 145.518 179.79 145.601 179.764C146.042 179.629 146.288 179.168 146.151 178.733L143.396 169.984L162.305 172.062L163.568 176.245L156.047 180.618C155.649 180.849 155.516 181.354 155.751 181.746C155.907 182.007 156.186 182.152 156.472 182.152C156.616 182.152 156.762 182.115 156.895 182.037L164.665 177.52L174.999 180.588C175.08 180.611 175.161 180.623 175.24 180.623C175.599 180.623 175.931 180.393 176.04 180.036C176.173 179.6 175.923 179.141 175.481 179.01L165.228 175.966L164.045 172.05L178.251 171.016L183.718 176.876L181.2 179.844L185.468 184.115C185.632 184.278 185.848 184.361 186.063 184.361C186.275 184.361 186.487 184.282 186.65 184.123C186.979 183.804 186.983 183.282 186.659 182.958L183.456 179.754L185.941 176.825L181.193 171.735L200.094 176.929L196.6 179.654H189.826C189.365 179.654 188.991 180.023 188.991 180.478C188.991 180.933 189.365 181.302 189.826 181.302H197.181L201.975 177.563L204.164 178.804C203.32 179.68 202.473 180.555 201.626 181.423C200.589 182.487 199.544 183.543 198.495 184.599H141.682ZM158.039 56.4575C158.039 56.5374 158.039 56.6157 158.041 56.6923C157.255 56.4649 156.436 56.347 155.622 56.347C150.954 56.347 147.157 60.0903 147.157 64.6909C147.157 69.2937 150.954 73.0382 155.622 73.0382C155.777 73.0382 155.928 73.0418 156.077 73.0451C156.237 73.0485 156.396 73.0521 156.556 73.0521C156.716 73.0521 156.88 73.0485 157.047 73.0382H177.861C177.744 73.5927 177.678 74.1592 177.678 74.7356C177.678 79.3215 181.459 83.0528 186.108 83.0528H204.571C207.042 85.5513 209.336 87.9126 211.533 90.2224H207.559C207.098 90.2224 206.724 90.5916 206.724 91.0465C206.724 91.5017 207.098 91.8705 207.559 91.8705H213.093C214.845 93.7291 216.57 95.5935 218.242 97.437H205.667C205.206 97.437 204.832 97.8057 204.832 98.261C204.832 98.7158 205.206 99.0851 205.667 99.0851H219.728C221.261 100.796 222.782 102.535 224.271 104.274H204.82C204.358 104.274 203.984 104.643 203.984 105.098C203.984 105.553 204.358 105.922 204.82 105.922H225.671C226.926 107.413 228.143 108.888 229.304 110.326H197.146C196.684 110.326 196.31 110.695 196.31 111.15C196.31 111.605 196.684 111.974 197.146 111.974H230.623L231.312 112.841C233.74 115.895 236.237 119.049 238.174 122.491H227.147C226.685 122.491 226.311 122.86 226.311 123.315C226.311 123.77 226.685 124.139 227.147 124.139H239.046C239.132 124.319 239.219 124.499 239.295 124.67C240.212 126.697 240.258 127.696 240.205 128.111L240.198 128.21C240.178 131.052 239.559 133.429 238.679 135.493C238.533 135.369 238.345 135.291 238.138 135.291H187.063C186.602 135.291 186.228 135.66 186.228 136.115C186.228 136.571 186.602 136.939 187.063 136.939H237.999C237.348 138.207 236.619 139.355 235.906 140.421C235.589 140.892 235.27 141.361 234.95 141.83H214.121C213.659 141.83 213.285 142.199 213.285 142.654C213.285 143.109 213.659 143.478 214.121 143.478H233.815C232.776 144.971 231.723 146.444 230.667 147.881H214.121C213.659 147.881 213.285 148.251 213.285 148.706C213.285 149.161 213.659 149.53 214.121 149.53H229.446C226.525 153.434 223.426 157.319 220.005 161.364C218.548 163.093 217.042 164.834 215.531 166.538C213.597 168.726 211.587 170.938 209.554 173.116C208.669 174.073 207.754 175.046 206.836 176.01C206.343 176.529 205.842 177.05 205.344 177.571L202.226 175.804L178.677 169.332L162.963 170.476L142.855 168.266L138.496 154.422L121.301 132.904C121.299 132.902 121.299 132.9 121.298 132.899C121.296 132.897 121.295 132.896 121.293 132.895L121.099 132.651L120.742 132.595C120.74 132.595 120.738 132.595 120.735 132.594L112.652 131.334L97.9858 120.458L91.0732 121.06L88.7342 77.7619C101.997 63.9555 113.519 53.3442 124.969 44.391C127.973 42.0415 131.08 39.6127 134.382 37.5386C140.503 33.6944 146.707 34.3499 154.499 39.6617C157.142 41.4659 159.803 43.3617 162.424 45.3007C159.59 48.3591 158.039 52.284 158.039 56.4575ZM186.421 66.4363C186.314 66.4313 186.209 66.4288 186.108 66.4288C182.756 66.4288 179.725 68.3999 178.389 71.39H157.021L156.966 71.3921C156.671 71.411 156.395 71.4036 156.115 71.3975C155.953 71.3937 155.789 71.39 155.622 71.39C151.876 71.39 148.828 68.3847 148.828 64.6909C148.828 60.9988 151.876 57.9952 155.622 57.9952C156.641 57.9952 157.669 58.2246 158.595 58.6593L159.962 59.3009L159.784 57.818C159.734 57.4014 159.71 56.9687 159.71 56.4575C159.71 52.6487 161.144 49.069 163.762 46.2986C171.541 52.1275 179.297 58.6354 186.837 65.6608C186.689 65.915 186.548 66.173 186.421 66.4363ZM193.051 71.5952C195.823 74.3187 199.363 77.8089 202.937 81.4047H186.108C182.381 81.4047 179.349 78.413 179.349 74.7356C179.349 73.9628 179.48 73.2091 179.74 72.4968L179.741 72.4922C180.701 69.8516 183.259 68.077 186.108 68.077C186.332 68.077 186.581 68.0926 186.846 68.1227L187.472 68.1939L187.714 67.6208C187.826 67.3547 187.953 67.0931 188.09 66.8347C189.754 68.3987 191.419 69.992 193.051 71.5952ZM276.808 128.096C276.708 124.845 274.722 121.582 271.623 119.581C263.788 114.523 257.512 110.296 251.871 106.278C244.601 101.104 237.57 95.7646 230.971 90.4103C227.396 87.5088 223.846 84.52 220.419 81.5266L220.197 81.3355C213.439 75.4188 206.929 69.2743 200.844 63.0684L199.919 62.1236C199.255 61.4463 198.59 60.7689 197.927 60.0895C190.395 52.3669 184.691 46.3687 179.436 40.6402C167.246 27.3574 157.714 15.7709 149.437 4.17569C147.569 1.55561 144.861 0.145301 141.636 0.0987255C136.817 -0.124954 133.943 2.84241 131.773 5.77764C129.137 9.33505 126.52 12.9951 123.988 16.5348L123.539 17.1619C112.493 32.5893 99.884 46.9826 87.7966 60.4537L86.6189 38.6564H89.6949V31.3742H86.778V16.161H89.3197L89.0046 15.1046C88.9787 15.0177 86.3518 6.57614 77.5306 6.2601V0.91038C77.5306 0.455505 77.1563 0.0863647 76.695 0.0863647C76.2333 0.0863647 75.8594 0.455505 75.8594 0.91038V6.29847C67.55 6.99393 64.4355 14.965 64.4038 15.0495L63.9835 16.161H66.6116V31.3742H63.6947V38.6564H66.8941L64.4794 82.1191C64.4656 82.1797 64.4568 82.242 64.4568 82.307C64.4568 82.3334 64.4618 82.3582 64.4648 82.3837L64.3524 84.3655C62.1764 86.3943 59.9427 88.4355 57.7043 90.4362C51.7135 95.795 45.3985 101.164 38.399 106.851C33.2657 111.023 27.8765 115.074 22.6645 118.991C20.1479 120.882 17.5453 122.838 15.0024 124.785C12.1954 126.935 10.9236 129.815 11.2223 133.347C11.6017 137.845 14.923 140.097 17.8541 142.083C26.5891 147.996 35.2616 154.265 43.6303 160.715C53.4371 168.267 63.1211 176.297 72.4515 184.599H67.4719C64.8835 184.599 62.9318 185.74 62.9318 187.254V191.922H32.6619L47.9735 218.371L32.6619 244.816H74.8875C77.478 244.816 79.4309 243.675 79.4309 242.161V237.494H123.307C128.176 243.676 132.749 249.993 136.899 256.275C138.786 259.131 141.717 260.838 144.94 260.959C145.057 260.963 145.174 260.965 145.291 260.965C148.208 260.965 150.925 259.607 152.791 257.202C155.689 253.466 158.485 249.564 161.19 245.792C162.827 243.508 164.52 241.147 166.216 238.849C166.549 238.395 166.886 237.944 167.224 237.494H208.562V242.161C208.562 243.675 210.518 244.816 213.113 244.816H255.328L240.023 218.371L255.328 191.922H225.068V187.254C225.068 185.74 223.116 184.599 220.528 184.599H214.09C214.783 183.927 215.472 183.253 216.171 182.585C223.089 175.959 230.524 169.205 238.247 162.529C238.293 162.491 238.339 162.452 238.385 162.412L238.431 162.371C240.913 160.227 243.551 158.027 246.274 155.83C248.875 153.726 251.645 151.549 254.508 149.356C257.032 147.416 259.651 145.439 262.513 143.312C265.877 140.806 269.324 138.275 272.567 135.897H272.567C276.187 133.239 276.871 130.188 276.808 128.096Z" fill="white"/>
<path d="M101.679 226.172H83.8828V218.802H86.7554V202.758H83.8828V195.389H101.679V202.758H98.8293V218.802H101.679V226.172Z" fill="white"/>
<path d="M135.189 226.172H105.408V218.802H107.832V202.758H105.363V195.389H135.189V205.236H126.998V202.758H119.906V207.494H126.077V213.757H119.906V218.802H126.998V216.324H135.189V226.172Z" fill="white"/>
<path d="M169.642 226.172H139.862V218.802H142.285V202.758H139.816V195.389H169.642V205.236H161.451V202.758H154.359V207.494H160.53V213.757H154.359V218.802H161.451V216.324H169.642V226.172Z" fill="white"/>
<path d="M204.13 226.172H174.35V218.802H176.773V202.758H174.305V195.389H204.13V205.236H195.939V202.758H188.847V207.494H195.019V213.757H188.847V218.802H195.939V216.324H204.13V226.172Z" fill="white"/>
<path d="M18.6738 283.778H16.2567V280.382H18.6738C18.9617 281.306 19.5049 281.768 20.3029 281.768C20.8796 281.768 21.1679 281.539 21.1679 281.082C21.1679 280.844 21.0676 280.646 20.8666 280.488C20.6502 280.316 20.1952 280.078 19.4999 279.773C18.625 279.382 17.9815 279.044 17.5692 278.76C17.1835 278.501 16.8542 278.143 16.5809 277.686C16.3082 277.235 16.1719 276.734 16.1719 276.186C16.1719 275.202 16.4962 274.432 17.145 273.879C17.7885 273.326 18.5807 273.049 19.5229 273.049C20.4651 273.049 21.2627 273.313 21.917 273.841V273.186H24.3492V276.201H21.9475C21.6542 275.369 21.1345 274.953 20.3882 274.953C19.863 274.953 19.6002 275.173 19.6002 275.615C19.6002 275.828 19.675 275.988 19.8241 276.095C19.9683 276.207 20.4341 276.453 21.2218 276.834C22.2772 277.351 22.9825 277.729 23.3377 277.968C23.5177 278.085 23.7016 278.249 23.8896 278.459C24.0776 278.67 24.2335 278.887 24.3571 279.11C24.64 279.608 24.7812 280.146 24.7812 280.724C24.7812 281.613 24.4466 282.364 23.7776 282.979C23.1082 283.602 22.2642 283.915 21.2448 283.915C20.2979 283.915 19.4406 283.638 18.6738 283.085V283.778Z" fill="white"/>
<path d="M34.3704 283.775H28.3396V281.24H29.2663V275.719H28.0307V277.646H26.0156V273.184H36.6635V277.646H34.6483V275.719H33.4207V281.24H34.3704V283.775Z" fill="white"/>
<path d="M38.5492 275.723H37.7227V273.188H43.2208V275.723H42.7111V279.295C42.7111 280.147 42.7934 280.728 42.958 281.038C43.1227 281.343 43.4189 281.495 43.8464 281.495C44.201 281.495 44.4589 281.366 44.618 281.107C44.7777 280.853 44.8579 280.333 44.8579 279.546V275.723H44.3172V273.188H48.3555V275.723H47.506V279.561C47.506 280.541 47.3619 281.343 47.0736 281.967C46.7853 282.587 46.3065 283.072 45.6375 283.422C44.9682 283.772 44.1447 283.947 43.1665 283.947C42.3789 283.947 41.6816 283.853 41.0741 283.665C40.456 283.483 39.9676 283.203 39.6066 282.828C39.2465 282.457 38.9816 282.008 38.8115 281.48C38.6364 280.967 38.5492 280.18 38.5492 279.119V275.723Z" fill="white"/>
<path d="M54.6014 275.723V281.244H54.995C55.9732 281.244 56.6091 280.988 56.9024 280.475C57.1907 279.962 57.3348 279.318 57.3348 278.541C57.3348 278.074 57.2735 277.612 57.1498 277.155C57.0207 276.698 56.7942 276.345 56.4704 276.096C56.1508 275.848 55.5796 275.723 54.7557 275.723H54.6014ZM54.6014 283.78H49.6055V281.244L50.4474 281.244V275.723H49.6055V273.188H54.7482C55.9218 273.188 56.8795 273.259 57.6206 273.401C58.3673 273.543 59.0697 273.835 59.7286 274.276C60.3825 274.724 60.8968 275.328 61.2729 276.089C61.458 276.454 61.5997 276.845 61.6975 277.262C61.7956 277.678 61.8445 278.115 61.8445 278.571C61.8445 279.49 61.646 280.328 61.2499 281.084C60.8588 281.836 60.3616 282.412 59.7596 282.812C59.1724 283.214 58.5291 283.475 57.8292 283.596C57.1343 283.719 56.058 283.78 54.6014 283.78Z" fill="white"/>
<path d="M73.6138 283.775H63.3674V281.24H64.2014V275.719H63.3516V273.184H73.6138V276.572H70.7955V275.719H68.3555V277.349H70.4789V279.504H68.3555V281.24H70.7955V280.387H73.6138V283.775Z" fill="white"/>
<path d="M79.4328 283.775H75.0234V281.24H75.9657V275.719H75.0234V273.184H80.1122L84.0196 278.72V275.719H83.1468V273.184H87.4788V275.719H86.5445V283.912H83.0081L78.483 277.509V281.24H79.4328V283.775Z" fill="white"/>
<path d="M96.9487 283.775H90.9181V281.24H91.8445V275.719H90.6093V277.646H88.5938V273.184H99.242V277.646H97.2268V275.719H95.9993V281.24H96.9486V283.775H96.9487Z" fill="white"/>
<path d="M109.608 279.371V281.457H110.543C111.14 281.457 111.57 281.381 111.832 281.229C112.089 281.077 112.218 280.807 112.218 280.422C112.218 280.061 112.102 279.795 111.871 279.622C111.639 279.455 111.191 279.371 110.527 279.371H109.608ZM109.608 275.511V277.445H110.527C111.15 277.445 111.559 277.356 111.755 277.178C111.94 277 112.033 276.767 112.033 276.478C112.033 276.229 111.948 276.005 111.778 275.808C111.608 275.609 111.142 275.511 110.38 275.511H109.608ZM110.596 283.78H104.52V281.244H105.454V275.724H104.52V273.188H111.083C112.37 273.188 113.366 273.262 114.072 273.409C114.766 273.561 115.312 273.863 115.709 274.315C116.105 274.777 116.303 275.315 116.303 275.929C116.303 276.529 116.115 277.006 115.74 277.361C115.353 277.726 114.885 277.98 114.334 278.122C115.091 278.346 115.673 278.691 116.079 279.158C116.491 279.635 116.697 280.171 116.697 280.765C116.697 281.475 116.465 282.079 116.002 282.577C115.539 283.069 114.903 283.391 114.095 283.544C113.296 283.701 112.131 283.78 110.596 283.78Z" fill="white"/>
<path d="M123.046 275.511V277.528H123.509C124.117 277.528 124.529 277.511 124.745 277.475C124.977 277.44 125.172 277.338 125.332 277.171C125.491 277.013 125.571 276.797 125.571 276.523C125.571 276.249 125.491 276.031 125.332 275.869C125.172 275.701 124.969 275.6 124.722 275.564C124.485 275.528 124.052 275.511 123.425 275.511H123.046ZM123.857 283.78H118.02V281.244H118.892V275.724H118.02V273.188H123.857C124.382 273.188 124.869 273.197 125.316 273.215C125.764 273.233 126.148 273.258 126.467 273.291C126.786 273.324 127.079 273.368 127.347 273.424C128.099 273.581 128.709 273.924 129.177 274.452C129.651 274.99 129.888 275.625 129.888 276.356C129.888 276.904 129.743 277.402 129.455 277.848C129.167 278.29 128.789 278.615 128.32 278.823L129.803 281.244H130.575V283.78H126.707L124.367 279.455H123.046V281.244H123.857V283.78Z" fill="white"/>
<path d="M136.259 275.876L135.246 278.807H137.17L136.259 275.876ZM135.246 283.78H130.992V281.244H131.81L133.826 275.723H132.961V273.188H140.683V275.723H139.818L141.872 281.244H142.66V283.78H137.054V281.457H137.995L137.586 280.125H134.837L134.367 281.457H135.246V283.78Z" fill="white"/>
<path d="M147.776 283.775H143.367V281.24H144.309V275.719H143.367V273.184H148.456L152.363 278.72V275.719H151.491V273.184H155.822V275.719H154.888V283.912H151.351L146.827 277.509V281.24H147.776V283.775Z" fill="white"/>
<path d="M165.568 279.109L168.356 280.076C168.119 281.208 167.576 282.134 166.727 282.855C165.867 283.581 164.683 283.944 163.175 283.944C161.116 283.944 159.592 283.414 158.604 282.353C157.61 281.297 157.113 280.007 157.113 278.484C157.113 276.951 157.6 275.649 158.573 274.578C159.545 273.507 160.809 272.971 162.364 272.971C163.625 272.971 164.653 273.279 165.445 273.893V273.185H168.024V277.053H165.344C165.206 276.571 164.971 276.19 164.642 275.911C164.312 275.637 163.937 275.499 163.514 275.499C162.351 275.499 161.77 276.487 161.77 278.462C161.77 280.441 162.372 281.431 163.576 281.431C164.632 281.431 165.296 280.657 165.568 279.109" fill="white"/>
<path d="M175.402 283.775H169.75V281.24H170.56V275.719H169.734V273.184H175.402V275.719H174.715V277.333H177.201V275.719H176.507V273.184H182.166V275.719H181.355V281.24H182.166V283.775H176.507V281.24H177.201V279.504H174.715V281.24H175.402V283.775Z" fill="white"/>
<path d="M191.674 283.775H187.511V281.24H188.338V275.719H187.488V273.184H193.967L195.549 277.273L197.171 273.184H203.611V275.719H202.77V281.24H203.634V283.775H198.028V281.24H198.886V275.323L195.642 283.775H194.036L190.824 275.399V281.24H191.674V283.775Z" fill="white"/>
<path d="M209.735 275.876L208.723 278.807H210.646L209.735 275.876ZM208.723 283.78H204.469V281.244H205.287L207.303 275.723H206.438V273.188H214.159V275.723H213.295L215.349 281.244H216.136V283.78H210.53V281.457H211.472L211.063 280.125H208.314L207.844 281.457H208.723V283.78Z" fill="white"/>
<path d="M221.218 283.775H216.809V281.24H217.751V275.719H216.809V273.184H221.897L225.805 278.72V275.719H224.932V273.184H229.264V275.719H228.33V283.912H224.793L220.268 277.509V281.24H221.218V283.775Z" fill="white"/>
<path d="M236.467 283.775H230.344V281.24H231.332V275.719H230.344V273.184H236.467V275.719H235.486V281.24H236.467V283.775Z" fill="white"/>
<path d="M242.924 275.511V277.498H243.734C244.301 277.498 244.712 277.432 244.97 277.3C245.217 277.168 245.34 276.911 245.34 276.531C245.34 276.282 245.273 276.071 245.14 275.899C245.011 275.731 244.838 275.625 244.622 275.579C244.416 275.534 244.066 275.511 243.572 275.511H242.924ZM244.005 283.78H237.727V281.244H238.769V275.724H237.727V273.188H244.314C245.827 273.188 246.934 273.333 247.634 273.622C248.334 273.917 248.849 274.317 249.178 274.825C249.508 275.333 249.672 275.889 249.672 276.493C249.672 277.239 249.477 277.858 249.086 278.351C248.695 278.848 248.177 279.209 247.533 279.432C246.9 279.65 245.922 279.76 244.599 279.76H242.924V281.244H244.005V283.78Z" fill="white"/>
<path d="M254.489 275.876L253.477 278.807H255.4L254.489 275.876ZM253.477 283.78H249.223V281.244H250.041L252.057 275.723H251.192V273.188H258.913V275.723H258.049L260.102 281.244H260.89V283.78H255.284V281.457H256.226L255.817 280.125H253.068L252.597 281.457H253.477V283.78Z" fill="white"/>
<path d="M271.821 283.775H261.598V281.24H262.563V275.719H261.598V273.184H267.737V275.719H266.717V281.24H269.258V279.542H271.821V283.775Z" fill="white"/>
</svg>
