<svg width="77" height="77" viewBox="0 0 77 77" fill="none" xmlns="http://www.w3.org/2000/svg">
<path fill-rule="evenodd" clip-rule="evenodd" d="M74.9573 16.7453C75.4948 18.8789 75.7919 21.0659 75.8432 23.2655C75.9191 26.43 75.979 29.5964 76.0312 32.3647L76.0314 32.3727C76.0646 34.1333 76.0949 35.7325 76.1242 37.0675C76.1036 39.0843 76.0889 40.8885 76.0752 42.5539C76.0495 45.6972 76.0278 48.3456 75.9784 50.9941C75.9756 53.4496 75.8077 55.9021 75.4759 58.3353C75.0202 62.5002 73.2598 66.4144 70.4463 69.5188C67.6329 72.6235 63.9101 74.7595 59.8102 75.6217C57.3373 76.1467 54.8184 76.4254 52.2905 76.4535C45.3874 76.6766 38.4843 76.6277 31.5847 76.5789H31.5842C30.4661 76.571 29.3481 76.5631 28.2301 76.5563C25.7667 76.5454 23.2981 76.4265 20.8455 76.2429C17.2742 76.0583 13.7958 75.0389 10.6898 73.2664C6.55176 70.8533 3.46802 66.9774 2.0466 62.4031C1.32923 60.1248 0.900918 57.7654 0.771734 55.3805C0.467933 50.5571 0.475509 45.7214 0.483071 40.8947C0.484249 40.1427 0.485427 39.391 0.485427 38.6396C0.485427 34.6242 0.51964 30.6122 0.588065 26.6039C0.585222 24.1481 0.753089 21.6952 1.09045 19.2626C1.63786 14.9157 3.53475 10.8499 6.51406 7.63755C9.43259 4.64204 13.2065 2.623 17.3181 1.85741C19.1906 1.4929 21.089 1.27615 22.9956 1.20917C27.3483 0.985228 31.6932 0.990956 36.0367 0.996681C36.7225 0.997585 37.4083 0.998489 38.094 0.998489C42.3509 0.998489 46.6076 0.998489 50.886 1.09573C53.053 1.13309 55.2167 1.28093 57.3685 1.53869C61.5957 1.97395 65.5864 3.69968 68.7991 6.48152C71.8638 9.18362 74.0154 12.7695 74.9573 16.7453ZM27.4797 54.9326C30.6687 57.067 34.4188 58.2079 38.2562 58.2109C40.8058 58.2152 43.3314 57.7167 45.6879 56.7436C48.0447 55.7705 50.1864 54.3422 51.9901 52.5401C53.794 50.7383 55.225 48.5983 56.2007 46.2427C57.1764 43.8871 57.6777 41.3622 57.6763 38.8126C57.6775 34.9752 56.5408 31.2237 54.41 28.0325C52.2792 24.8411 49.2499 22.3532 45.7054 20.8832C42.1609 19.4133 38.26 19.0273 34.4961 19.7741C30.7323 20.5209 27.2743 22.3669 24.5594 25.0787C21.8445 27.7907 19.9946 31.2466 19.2436 35.0097C18.4927 38.7726 18.8743 42.6741 20.3403 46.2202C21.8063 49.7664 24.2909 52.7982 27.4797 54.9326ZM60.3448 23.6383C59.0489 23.6425 57.7808 23.2621 56.7011 22.545C55.6213 21.8279 54.7789 20.8066 54.2802 19.6103C53.7815 18.414 53.6491 17.0967 53.8997 15.825C54.1502 14.5535 54.7728 13.3848 55.688 12.4672C56.6034 11.5496 57.7704 10.9243 59.0413 10.6706C60.3125 10.4168 61.6299 10.546 62.8276 11.0417C64.025 11.5374 65.0485 12.3774 65.7682 13.4553C66.4879 14.5331 66.8716 15.8004 66.8706 17.0964C66.8578 18.8227 66.166 20.4746 64.9449 21.6948C63.7237 22.9149 62.0712 23.6054 60.3448 23.6166V23.6383ZM32.6296 30.32C34.3084 29.2039 36.2807 28.6111 38.2966 28.6163C40.994 28.6265 43.5777 29.7045 45.4821 31.6151C47.3864 33.5256 48.4565 36.1126 48.4579 38.81C48.4567 40.8259 47.8575 42.7963 46.7362 44.4716C45.6149 46.147 44.0218 47.4519 42.1586 48.2213C40.2951 48.9909 38.2456 49.1904 36.2688 48.7945C34.2921 48.3983 32.4773 47.425 31.0539 45.9973C29.6308 44.5695 28.6631 42.7516 28.2736 40.7737C27.8838 38.7958 28.09 36.7465 28.8652 34.8859C29.6407 33.025 30.9507 31.4359 32.6296 30.32Z" fill="#B7B7B7"/>
</svg>
