<svg width="25" height="24" viewBox="0 0 25 24" fill="none" xmlns="http://www.w3.org/2000/svg">
<path fill-rule="evenodd" clip-rule="evenodd" d="M12.5 24C19.1274 24 24.5 18.6274 24.5 12C24.5 5.37258 19.1274 0 12.5 0C5.87258 0 0.5 5.37258 0.5 12C0.5 18.6274 5.87258 24 12.5 24Z" fill="#3A3838"/>
<path fill-rule="evenodd" clip-rule="evenodd" d="M9.25192 4.80005H15.6686C17.8478 4.80005 19.6207 6.57294 19.6206 8.752V15.1686C19.6206 17.3477 17.8478 19.1206 15.6686 19.1206H9.25192C7.07286 19.1206 5.30005 17.3478 5.30005 15.1686V8.752C5.30005 6.57294 7.07286 4.80005 9.25192 4.80005ZM15.6686 17.85C17.1472 17.85 18.3501 16.6472 18.3501 15.1686H18.35V8.752C18.35 7.27355 17.1471 6.07064 15.6686 6.07064H9.25192C7.77346 6.07064 6.57064 7.27355 6.57064 8.752V15.1686C6.57064 16.6472 7.77346 17.8501 9.25192 17.85H15.6686Z" fill="#FFB800"/>
<path fill-rule="evenodd" clip-rule="evenodd" d="M8.77026 11.9606C8.77026 9.92583 10.4256 8.27051 12.4603 8.27051C14.495 8.27051 16.1503 9.92583 16.1503 11.9606C16.1503 13.9952 14.495 15.6504 12.4603 15.6504C10.4256 15.6504 8.77026 13.9952 8.77026 11.9606ZM10.0409 11.9605C10.0409 13.2945 11.1263 14.3797 12.4603 14.3797C13.7943 14.3797 14.8798 13.2945 14.8798 11.9605C14.8798 10.6263 13.7944 9.54101 12.4603 9.54101C11.1262 9.54101 10.0409 10.6263 10.0409 11.9605Z" fill="#FFB800"/>
<path d="M16.3052 7.19312C16.0604 7.19312 15.8199 7.29222 15.647 7.46587C15.4733 7.63867 15.3734 7.87923 15.3734 8.12488C15.3734 8.36976 15.4734 8.61024 15.647 8.78389C15.8198 8.95669 16.0604 9.05664 16.3052 9.05664C16.5508 9.05664 16.7905 8.95669 16.9642 8.78389C17.1378 8.61024 17.2369 8.36968 17.2369 8.12488C17.2369 7.87923 17.1378 7.63867 16.9642 7.46587C16.7914 7.29222 16.5508 7.19312 16.3052 7.19312Z" fill="#FFB800"/>
</svg>
