<svg width="134" height="35" viewBox="0 0 134 35" fill="none" xmlns="http://www.w3.org/2000/svg">
<path d="M60.72 10.072C59.28 8.224 56.88 7.576 54.984 7.576C49.68 7.576 45.816 11.056 45.816 16.504C45.816 21.952 49.68 25.432 54.984 25.432C57.312 25.432 59.712 24.496 61.128 22.48L58.008 20.152C57.24 21.304 56.016 21.976 54.504 21.976C51.792 21.976 49.704 19.672 49.704 16.504C49.704 13.336 51.792 11.032 54.624 11.032C56.016 11.032 57.096 11.536 57.84 12.424L60.72 10.072ZM62.7017 25H66.3017V20.128C66.3017 17.8 66.6377 16.216 69.3737 16.216C69.9017 16.216 70.4057 16.312 70.9097 16.456V13.168C70.5737 13.072 70.1177 13.048 69.7097 13.048C68.1257 13.048 67.1177 13.792 66.3497 15.208H66.3017V13.336H62.7017V25ZM84.4751 13.336H80.7791L78.2111 21.04H78.1631L75.1631 13.336H71.2751L76.3871 25.096L76.1231 25.768C75.6191 27.04 75.3551 27.736 73.7231 27.736C73.1231 27.736 72.5951 27.616 72.0431 27.376L71.5631 30.328C72.4271 30.616 73.3391 30.76 74.2511 30.76C77.6831 30.76 78.2351 29.368 79.1951 26.896L84.4751 13.336ZM86.1471 30.472H89.7471V23.752H89.7951C90.6111 24.88 92.0031 25.288 93.4911 25.288C96.8031 25.288 98.8191 22.312 98.8191 19.072C98.8191 15.544 96.5391 13.048 93.0831 13.048C91.4511 13.048 90.0591 14.032 89.5071 14.872H89.4591V13.336H86.1471V30.472ZM89.4591 19.168C89.4591 17.416 90.5391 16.216 92.3391 16.216C94.1391 16.216 95.2191 17.416 95.2191 19.168C95.2191 20.92 94.1391 22.12 92.3391 22.12C90.5391 22.12 89.4591 20.92 89.4591 19.168ZM108.872 13.336H105.704V9.88H102.104V13.336H99.8003V16.216H102.104V21.76C102.104 24.304 103.952 25.288 106.352 25.288C107.192 25.288 108.08 25.216 108.872 24.928V21.928C108.56 22.216 107.792 22.264 107.408 22.264C105.848 22.264 105.704 21.352 105.704 20.104V16.216H108.872V13.336Z" fill="white"/>
<path d="M9.73842 33C11.108 33 15.1511 33 18.5247 33C21.9155 33 25.4606 32.8223 28.2888 30.9517C37.4707 24.8789 37.0276 10.028 28.2045 4.04513C25.4387 2.16969 21.9411 2 18.5994 2C15.6692 2 12.0986 2 9.73842 2M9.73842 33C13.6051 33 14.5661 30.5702 12.6504 27.6298L5.49764 18.4648C4.93215 17.7402 4.93331 16.7235 5.50046 16.0002L12.6504 6.88179C13.9393 4.58731 13.271 2.68337 9.73842 2M9.73842 33H0M10.3152 25.0181H14.858C18.6499 25.0181 22.9711 24.9629 25.3099 21.9781C27.6173 19.0333 27.3264 14.9317 24.7932 12.2549C22.549 9.88346 18.9239 9.85984 15.6589 9.85984H10.3152M9.73842 2H0" stroke="#FBB901" stroke-width="3"/>
</svg>
