<svg width="83" height="83" viewBox="0 0 83 83" fill="none" xmlns="http://www.w3.org/2000/svg">
<path fill-rule="evenodd" clip-rule="evenodd" d="M82.4056 43.5814V43.5818L81.7089 49.081L81.4101 50.2523C81.2169 51.0021 81.0236 51.7457 80.76 52.466C79.8393 55.3645 78.118 57.9436 75.7949 59.9062C73.4717 61.8689 70.6412 63.1347 67.6297 63.5583C64.6344 63.8925 61.6027 63.4876 58.8004 62.3788C55.9977 61.27 53.5096 59.4911 51.5536 57.1982C47.9231 59.8855 43.5015 61.2887 38.9856 61.1865C35.6615 61.126 32.4099 60.2032 29.5497 58.5081C26.6894 56.8133 24.3186 54.4043 22.6695 51.5174C21.1064 48.8639 20.1914 45.8791 19.9988 42.8057C19.8061 39.7322 20.3411 36.6564 21.5605 33.8284C22.7799 31.0007 24.6491 28.5002 27.0164 26.5307C29.3836 24.5609 32.1824 23.1774 35.1849 22.4926C40.2445 21.3351 45.5563 22.2032 49.9841 24.9112C50.4989 24.1124 51.2146 23.463 52.0594 23.0281C52.9046 22.5933 53.8491 22.3884 54.7982 22.434C56.2578 22.5098 57.6278 23.1616 58.6071 24.2465C59.5865 25.3312 60.0954 26.7606 60.0222 28.2202C59.9462 29.6793 59.771 31.2746 59.5888 32.9327C59.0268 38.0493 58.3991 43.7638 60.4204 47.9214C61.0761 49.4415 62.2144 50.7033 63.6591 51.5115C64.391 51.8925 65.222 52.0406 66.0407 51.9358C66.8592 51.8313 67.6261 51.4787 68.2388 50.926C68.8448 50.2115 69.2654 49.3585 69.4629 48.4426C70.614 44.0075 70.6957 39.3622 69.7015 34.8891C68.7072 30.416 66.6652 26.2427 63.7434 22.7128C60.8219 19.1828 57.104 16.3967 52.8956 14.5838C48.6872 12.7709 44.1085 11.983 39.5363 12.2847C35.1564 12.5658 30.8973 13.836 27.0789 16C23.2606 18.1639 19.9826 21.1653 17.4911 24.7785C14.9997 28.3916 13.3598 32.5223 12.6945 36.8606C12.0293 41.1987 12.3561 45.6311 13.6505 49.8249C15.9154 56.9973 20.8678 63.0151 27.4705 66.6174C34.073 70.22 41.8135 71.1282 49.0705 69.1512C50.2201 68.7989 51.4493 68.8012 52.5976 69.1574C53.7461 69.5138 54.7606 70.2077 55.5088 71.1487C56.2571 72.0899 56.7048 73.2346 56.7932 74.4338C56.8816 75.6328 56.6069 76.8308 56.0047 77.8717C55.5831 78.5725 55.0238 79.1803 54.3603 79.6585C53.6969 80.1369 52.9433 80.4752 52.1453 80.6535C49.8462 81.2142 47.5149 81.6327 45.1643 81.9066C43.7298 82.0444 42.2891 82.109 40.848 82.1H38.9856L33.4747 81.4089L32.4556 81.0927C31.911 80.9287 31.3839 80.7822 30.7984 80.6299C29.5384 80.3183 28.2953 79.9429 27.0735 79.5055C18.8916 76.5476 11.8827 71.028 7.08911 63.7674C2.29553 56.5068 -0.0267754 47.8932 0.467515 39.2071C0.596834 33.3306 2.06829 27.5616 4.76936 22.3412C7.47041 17.1208 11.3296 12.5872 16.0516 9.08707C21.9319 4.24861 29.0859 1.21377 36.6514 0.348208C44.2172 -0.517356 51.8716 0.823293 58.6927 4.20861C65.2973 7.08445 70.9838 11.7214 75.1299 17.6122C79.276 23.5029 81.7222 30.4206 82.2006 37.6081C82.3298 38.9845 82.3884 40.3664 82.3764 41.7486C82.4056 42.3635 82.4056 42.9665 82.4056 43.5814ZM45.3239 46.7742C46.5252 45.4566 47.2325 43.7635 47.3252 41.9831C47.3813 40.9712 47.2358 39.9582 46.8968 39.0032C46.558 38.0479 46.0327 37.1697 45.3516 36.4194C44.1575 35.0953 42.5413 34.2264 40.7783 33.9604C39.0156 33.6944 37.2149 34.048 35.6833 34.9606C34.1517 35.8733 32.9839 37.2886 32.3789 38.9657C31.7739 40.6429 31.7688 42.4779 32.3648 44.1581C32.9611 45.8384 34.1212 47.26 35.6479 48.181C37.1744 49.1017 38.9733 49.4648 40.7376 49.2083C42.5018 48.9518 44.1226 48.0916 45.3239 46.7742Z" fill="#B7B7B7"/>
</svg>
