<svg width="95" height="95" viewBox="0 0 95 95" fill="none" xmlns="http://www.w3.org/2000/svg">
<circle cx="47.5" cy="47.5" r="43.5" stroke="#B7B7B7" stroke-width="8"/>
<path d="M62.0547 47.5C62.0547 60.2479 60.0292 71.607 56.8943 79.6322C55.322 83.6572 53.5487 86.6424 51.7838 88.5534C50.0228 90.4601 48.5713 91 47.5 91C46.4287 91 44.9772 90.4601 43.2162 88.5534C41.4513 86.6424 39.678 83.6572 38.1057 79.6322C34.9708 71.607 32.9453 60.2479 32.9453 47.5C32.9453 34.7521 34.9708 23.393 38.1057 15.3678C39.678 11.3428 41.4513 8.35765 43.2162 6.44664C44.9772 4.53991 46.4287 4 47.5 4C48.5713 4 50.0228 4.53991 51.7838 6.44664C53.5487 8.35765 55.322 11.3428 56.8943 15.3678C60.0292 23.393 62.0547 34.7521 62.0547 47.5Z" stroke="#B7B7B7" stroke-width="8"/>
<path d="M5.9375 37.4803C37.7027 29.1288 56.0445 29.0095 89.7914 37.4803" stroke="#B7B7B7" stroke-width="8"/>
<path d="M90.5337 59.3749C58.7685 67.7264 40.4267 67.8457 6.67975 59.3749" stroke="#B7B7B7" stroke-width="8"/>
</svg>
