  <svg width="100%" height="100%"  viewBox="0 0 371 261" fill="none" xmlns="http://www.w3.org/2000/svg">
                        <g clip-path="url(#clip0_138_715)">
                            <path d="M189.477 260.447C200.636 260.447 209.681 251.417 209.681 240.278C209.681 229.138 200.636 220.108 189.477 220.108C178.319 220.108 169.273 229.138 169.273 240.278C169.273 251.417 178.319 260.447 189.477 260.447Z" fill="#FFB800" />
                            <path d="M310.178 259.314C321.481 255.925 333.498 252.391 342.462 244.335C350.473 237.137 355.881 226.144 352.562 215.348C349.251 204.574 339.331 197.39 329.09 193.817C323.281 191.791 317.204 190.666 311.129 189.783C304.525 188.823 297.893 188.036 291.263 187.279C264.419 184.214 237.473 182.342 210.427 181.662C197.081 181.327 183.738 181.335 170.391 181.528C158.471 181.701 145.916 181.697 134.858 176.639C126.259 172.706 118.454 165.551 116.058 156.148C113.292 145.294 118.394 134.241 125.712 126.38C129.57 122.237 134.078 118.749 138.729 115.542C143.774 112.064 148.996 108.831 154.33 105.814C164.837 99.8738 175.822 94.8186 187.17 90.7006C192.768 88.6686 198.449 86.9155 204.18 85.2981C209.019 83.9325 213.873 82.5649 218.549 80.7042C227.59 77.1071 236.189 71.0142 238.487 61.0253C240.666 51.5583 236.993 41.2811 230.553 34.2482C223.102 26.1116 211.869 22.5448 201.099 21.9677C189.008 21.3198 177.195 24.3407 165.831 28.1745C153.709 32.2636 141.85 36.9654 129.473 40.2775C117.199 43.5587 104.688 45.8803 92.0527 47.2212C85.8674 47.8787 79.4952 48.6211 73.2732 48.1178C68.0585 47.6959 62.8705 46.165 59.0274 42.4705C55.7322 39.3028 53.7691 34.9492 54.444 30.3548C54.5666 29.5203 55.8364 29.8751 55.7146 30.7045C54.8931 36.2971 58.7013 41.4506 63.394 44.0904C68.8176 47.1414 75.4173 47.1455 81.4556 46.7966C94.5484 46.0072 107.552 44.1306 120.333 41.1862C132.892 38.3228 145.002 34.2294 157.098 29.8567C168.586 25.7038 180.331 21.6506 192.605 20.7511C203.254 19.9706 214.457 21.5193 223.734 27.0751C231.888 31.9578 237.883 40.1006 239.794 49.4446C241.661 58.5754 239.075 67.7658 232.152 74.1376C224.983 80.7348 215.153 83.5554 205.993 86.1531C194.375 89.4478 183.005 93.2992 172 98.2999C160.846 103.354 150.148 109.358 140.025 116.245C130.254 122.911 120.611 131.298 117.521 143.189C116.081 148.729 116.347 154.603 118.756 159.835C120.897 164.487 124.425 168.401 128.534 171.419C138.337 178.62 150.694 180.099 162.536 180.246C175.836 180.411 189.137 179.963 202.441 180.181C229.555 180.625 256.614 182.273 283.618 185.124C290.384 185.839 297.142 186.629 303.891 187.495C309.962 188.273 316.053 189.047 322.021 190.43C332.634 192.889 342.961 197.617 349.557 206.6C352.485 210.493 354.298 215.107 354.804 219.949C355.266 225.002 354.027 230.064 351.739 234.559C346.673 244.508 337.186 250.836 327.11 254.993C321.713 257.22 316.116 258.907 310.529 260.582C309.715 260.826 309.367 259.557 310.178 259.314L310.178 259.314Z" fill="#F2F2F2" />
                            <path d="M55.2949 40.9963C61.1167 40.9963 65.8362 36.2849 65.8362 30.4732C65.8362 24.6614 61.1167 19.9501 55.2949 19.9501C49.4731 19.9501 44.7535 24.6614 44.7535 30.4732C44.7535 36.2849 49.4731 40.9963 55.2949 40.9963Z" fill="#F2F2F2" />
                            <path d="M128.425 60.9463C134.247 60.9463 138.967 56.235 138.967 50.4232C138.967 44.6115 134.247 39.9001 128.425 39.9001C122.604 39.9001 117.884 44.6115 117.884 50.4232C117.884 56.235 122.604 60.9463 128.425 60.9463Z" fill="#F2F2F2" />
                            <path d="M190.356 21.0462C196.177 21.0462 200.897 16.3349 200.897 10.5231C200.897 4.71135 196.177 0 190.356 0C184.534 0 179.814 4.71135 179.814 10.5231C179.814 16.3349 184.534 21.0462 190.356 21.0462Z" fill="#F2F2F2" />
                            <path d="M229.007 65.7694C234.829 65.7694 239.548 61.0581 239.548 55.2463C239.548 49.4346 234.829 44.7232 229.007 44.7232C223.185 44.7232 218.466 49.4346 218.466 55.2463C218.466 61.0581 223.185 65.7694 229.007 65.7694Z" fill="#F2F2F2" />
                            <path d="M176.74 117.508C182.562 117.508 187.281 112.797 187.281 106.985C187.281 101.173 182.562 96.4618 176.74 96.4618C170.918 96.4618 166.198 101.173 166.198 106.985C166.198 112.797 170.918 117.508 176.74 117.508Z" fill="#F2F2F2" />
                            <path d="M110.417 142.5C116.239 142.5 120.959 137.789 120.959 131.977C120.959 126.166 116.239 121.454 110.417 121.454C104.595 121.454 99.876 126.166 99.876 131.977C99.876 137.789 104.595 142.5 110.417 142.5Z" fill="#F2F2F2" />
                            <path d="M180.693 181.524C186.515 181.524 191.234 176.812 191.234 171C191.234 165.189 186.515 160.477 180.693 160.477C174.871 160.477 170.151 165.189 170.151 171C170.151 176.812 174.871 181.524 180.693 181.524Z" fill="#F2F2F2" />
                            <path d="M256.239 203.447C262.061 203.447 266.78 198.735 266.78 192.924C266.78 187.112 262.061 182.4 256.239 182.4C250.417 182.4 245.698 187.112 245.698 192.924C245.698 198.735 250.417 203.447 256.239 203.447Z" fill="#F2F2F2" />
                            <path d="M344.523 198.624C350.344 198.624 355.064 193.912 355.064 188.101C355.064 182.289 350.344 177.577 344.523 177.577C338.701 177.577 333.981 182.289 333.981 188.101C333.981 193.912 338.701 198.624 344.523 198.624Z" fill="#F2F2F2" />
                            <path d="M187.313 29.817C155.736 30.0396 129.882 55.6555 129.433 87.1751C129.429 87.4661 129.427 89.5123 129.428 92.1885C129.428 96.1125 130.989 99.8758 133.769 102.651C136.548 105.425 140.318 106.984 144.249 106.985H144.249C146.197 106.984 148.127 106.601 149.927 105.856C151.727 105.111 153.362 104.019 154.739 102.643C156.116 101.266 157.208 99.6328 157.952 97.8351C158.697 96.0375 159.079 94.111 159.077 92.1659C159.076 90.3453 159.075 89.0853 159.075 89.0079C159.074 84.1366 160.343 79.3489 162.758 75.1159C165.173 70.8828 168.65 67.3501 172.847 64.8654C177.044 62.3806 181.817 61.0294 186.696 60.9446C191.575 60.8597 196.392 62.0443 200.673 64.3816C204.955 66.719 208.553 70.1286 211.114 74.2752C213.674 78.4218 215.11 83.1624 215.279 88.0308C215.448 92.8992 214.344 97.7276 212.077 102.041C209.809 106.355 206.456 110.005 202.347 112.632L202.352 112.638C202.352 112.638 181.257 126.195 174.826 144.793L174.831 144.794C173.7 148.604 173.127 152.558 173.13 156.531C173.13 158.165 173.226 172.457 173.412 184.057C173.477 188.059 175.116 191.876 177.975 194.683C180.833 197.49 184.683 199.063 188.693 199.062H188.693C190.708 199.062 192.703 198.664 194.563 197.892C196.423 197.119 198.112 195.987 199.533 194.56C200.953 193.133 202.077 191.44 202.839 189.578C203.601 187.717 203.988 185.723 203.975 183.711C203.911 173.088 203.876 160.717 203.876 159.82C203.876 148.4 214.911 137.022 223.976 129.602C234.414 121.058 241.926 109.414 244.943 96.2792C245.611 93.575 245.979 90.8058 246.041 88.0214C246.041 80.3423 244.519 72.7391 241.562 65.6499C238.606 58.5606 234.273 52.1255 228.814 46.7152C223.355 41.3049 216.878 37.0264 209.755 34.1262C202.632 31.226 195.005 29.7615 187.313 29.817V29.817Z" fill="#FFB800" />
                            <path d="M370.477 261H0.523049C0.38461 261 0.251981 260.944 0.154232 260.847C0.0564819 260.749 0.00158691 260.616 0.00158691 260.478C0.00158691 260.34 0.0564819 260.207 0.154232 260.109C0.251981 260.011 0.38461 259.956 0.523049 259.956H370.477C370.616 259.956 370.749 260.011 370.847 260.109C370.945 260.207 371 260.34 371 260.478C371 260.616 370.945 260.749 370.847 260.847C370.749 260.945 370.616 261 370.477 261V261Z" fill="#3F3D56" />
                            <path d="M276.029 119.699C283.306 119.699 289.205 113.809 289.205 106.545C289.205 99.28 283.306 93.3908 276.029 93.3908C268.751 93.3908 262.852 99.28 262.852 106.545C262.852 113.809 268.751 119.699 276.029 119.699Z" fill="#2F2E41" />
                            <path d="M251.68 255.242H246.295L243.733 234.508H251.681L251.68 255.242Z" fill="#A0616A" />
                            <path d="M242.449 253.706H252.834V260.233H235.91C235.91 259.376 236.079 258.527 236.408 257.735C236.736 256.943 237.218 256.224 237.825 255.618C238.432 255.011 239.153 254.531 239.946 254.203C240.74 253.875 241.59 253.706 242.449 253.706Z" fill="#2F2E41" />
                            <path d="M293.406 255.242H288.021L285.459 234.508H293.407L293.406 255.242Z" fill="#A0616A" />
                            <path d="M284.175 253.706H294.56V260.233H277.636C277.636 259.376 277.805 258.527 278.134 257.735C278.462 256.943 278.944 256.224 279.551 255.618C280.158 255.011 280.879 254.531 281.673 254.203C282.466 253.875 283.316 253.706 284.175 253.706V253.706Z" fill="#2F2E41" />
                            <path d="M274.026 119.775C279.984 119.775 284.814 114.954 284.814 109.006C284.814 103.059 279.984 98.2372 274.026 98.2372C268.068 98.2372 263.238 103.059 263.238 109.006C263.238 114.954 268.068 119.775 274.026 119.775Z" fill="#A0616A" />
                            <path d="M280.456 154.517L285.283 143.446C286.455 140.848 286.791 137.952 286.245 135.156C285.698 132.36 284.295 129.803 282.23 127.836C281.806 127.418 281.356 127.027 280.882 126.666C278.5 124.806 275.565 123.792 272.541 123.785C270.508 123.793 268.501 124.239 266.656 125.092C266.497 125.162 266.344 125.236 266.186 125.311C265.883 125.456 265.584 125.613 265.294 125.776C263.403 126.859 261.794 128.372 260.596 130.19C259.398 132.009 258.645 134.084 258.398 136.246L256.268 154.065C255.732 155.464 236.617 205.975 243.302 244.538C243.373 244.949 243.575 245.328 243.876 245.617C244.178 245.907 244.565 246.092 244.98 246.147L251.757 247.068C252.252 247.135 252.754 247.013 253.163 246.726C253.571 246.439 253.855 246.008 253.958 245.52L265.329 191.409C265.4 191.073 265.582 190.77 265.845 190.549C266.109 190.328 266.439 190.202 266.783 190.19C267.127 190.179 267.465 190.282 267.743 190.485C268.021 190.688 268.222 190.978 268.316 191.308L284.383 248.212C284.497 248.625 284.744 248.99 285.086 249.25C285.428 249.509 285.846 249.65 286.276 249.65C286.404 249.649 286.532 249.638 286.658 249.615L294.937 248.023C295.418 247.934 295.849 247.667 296.144 247.277C296.439 246.887 296.577 246.401 296.532 245.914C295.315 232.37 288.85 164.527 280.456 154.517Z" fill="#2F2E41" />
                            <path d="M232.102 117.968C232.027 118.609 232.094 119.257 232.297 119.869C232.501 120.481 232.836 121.041 233.28 121.509C233.724 121.977 234.265 122.343 234.865 122.58C235.466 122.817 236.111 122.919 236.755 122.881L242.785 137.347L247.347 130.597L240.921 117.894C240.784 116.818 240.256 115.829 239.437 115.115C238.619 114.401 237.566 114.012 236.479 114.021C235.392 114.03 234.346 114.437 233.539 115.164C232.733 115.892 232.221 116.89 232.102 117.968L232.102 117.968Z" fill="#A0616A" />
                            <path d="M273.428 169.083C274.069 169.006 274.686 168.79 275.234 168.45C275.783 168.11 276.25 167.654 276.603 167.114C276.956 166.575 277.186 165.964 277.276 165.326C277.367 164.688 277.317 164.037 277.129 163.421L289.816 154.196L282.178 151.341L271.301 160.538C270.284 160.922 269.444 161.665 268.939 162.627C268.435 163.588 268.301 164.7 268.563 165.754C268.825 166.807 269.465 167.727 270.362 168.341C271.258 168.955 272.349 169.219 273.428 169.083V169.083Z" fill="#A0616A" />
                            <path d="M252.746 146.991C252.259 146.99 251.774 146.942 251.297 146.848C250.143 146.629 249.061 146.13 248.146 145.394C247.231 144.659 246.511 143.71 246.049 142.632L237.601 132.348C237.423 132.131 237.293 131.878 237.22 131.606C237.147 131.335 237.134 131.051 237.18 130.773C237.226 130.496 237.331 130.232 237.488 129.998C237.645 129.765 237.85 129.567 238.089 129.419L244.1 125.705C244.322 125.568 244.569 125.476 244.826 125.435C245.084 125.393 245.347 125.403 245.601 125.464C245.855 125.525 246.094 125.635 246.305 125.789C246.516 125.942 246.694 126.136 246.83 126.359L252.784 136.151L264.187 127.739C265.095 127.263 266.144 127.13 267.142 127.363C268.14 127.596 269.021 128.18 269.624 129.008C270.226 129.835 270.51 130.852 270.424 131.872C270.338 132.892 269.887 133.846 269.154 134.562L257.773 144.926C256.436 146.249 254.629 146.991 252.746 146.991Z" fill="#2F2E41" />
                            <path d="M283.557 162.456C283.542 162.456 283.526 162.456 283.511 162.456C283.234 162.449 282.961 162.384 282.711 162.266C282.46 162.147 282.237 161.977 282.057 161.767L276.713 155.544C276.531 155.332 276.396 155.084 276.317 154.816C276.238 154.548 276.217 154.267 276.256 153.99C276.294 153.714 276.39 153.449 276.539 153.212C276.687 152.976 276.885 152.773 277.117 152.618L287.123 145.959L278.059 135.08C277.531 134.202 277.338 133.165 277.514 132.156C277.689 131.148 278.223 130.237 279.016 129.589C279.809 128.941 280.81 128.599 281.835 128.627C282.859 128.654 283.84 129.049 284.597 129.738L295.615 140.486C296.482 141.277 297.144 142.266 297.544 143.368C297.943 144.471 298.069 145.653 297.911 146.815C297.752 147.977 297.313 149.082 296.632 150.038C295.951 150.993 295.048 151.768 294 152.298L284.996 161.837C284.811 162.032 284.588 162.188 284.34 162.295C284.093 162.401 283.827 162.456 283.557 162.456Z" fill="#2F2E41" />
                            <path d="M271.283 139.525C271.197 139.525 271.112 139.52 271.027 139.509C270.655 139.464 270.303 139.313 270.014 139.074C269.725 138.836 269.511 138.52 269.397 138.163L265.381 125.873C265.281 125.563 265.296 125.226 265.425 124.926C265.554 124.626 265.787 124.382 266.082 124.24L266.212 124.179C266.33 124.123 266.447 124.067 266.566 124.014C268.439 123.147 270.477 122.695 272.541 122.689C275.221 122.694 277.84 123.48 280.079 124.95C280.379 125.149 280.589 125.458 280.663 125.81C280.737 126.163 280.669 126.53 280.475 126.833L272.942 138.613C272.765 138.893 272.521 139.123 272.23 139.283C271.94 139.442 271.614 139.526 271.283 139.525V139.525Z" fill="#E6E6E6" />
                            <path d="M286.417 100.672C288.798 100.672 290.729 98.7452 290.729 96.368C290.729 93.9909 288.798 92.0638 286.417 92.0638C284.036 92.0638 282.105 93.9909 282.105 96.368C282.105 98.7452 284.036 100.672 286.417 100.672Z" fill="#2F2E41" />
                            <path d="M271.636 91.6369C268.608 91.6369 265.703 92.838 263.561 94.9759C261.42 97.1138 260.217 100.013 260.217 103.037V107.86H266.159L269.001 103.037L269.854 107.86H287.888L283.056 103.037C283.056 100.013 281.853 97.1138 279.711 94.9759C277.57 92.838 274.665 91.6369 271.636 91.6369V91.6369Z" fill="#2F2E41" />
                            <path d="M288.633 93.4197C289.11 91.9314 290.097 90.6585 291.421 89.8248C292.745 88.9912 294.321 88.6501 295.872 88.8617C298.62 89.3202 300.792 91.5251 302.087 93.9878C303.381 96.4504 303.979 99.2066 304.849 101.848C305.719 104.49 306.954 107.147 309.151 108.857C311.347 110.567 314.719 111.031 316.876 109.272C316.63 111.105 315.812 112.815 314.539 114.159C313.266 115.503 311.601 116.414 309.781 116.762C307.961 117.11 306.078 116.878 304.397 116.099C302.716 115.32 301.324 114.033 300.416 112.42C299.277 110.398 298.983 108.028 298.646 105.733C298.308 103.438 297.869 101.064 296.51 99.1826C295.151 97.3013 292.606 96.0726 290.447 96.9295L288.633 93.4197Z" fill="#2F2E41" />
                            <path d="M148.433 99.9863C144.503 99.9859 140.733 98.4268 137.954 95.652C135.174 92.8772 133.613 89.114 133.612 85.19C133.612 82.5137 133.614 80.4675 133.618 80.1765C133.743 71.0097 136.056 62.0048 140.364 53.9087C133.285 63.5825 129.393 75.2132 129.226 87.1919C129.222 87.4829 129.22 89.5291 129.22 92.2054C129.22 96.1294 130.782 99.8926 133.561 102.667C136.341 105.442 140.11 107.001 144.041 107.002V107.002C147.271 107.001 150.413 105.947 152.988 104.001C155.564 102.055 157.432 99.3227 158.311 96.2197C155.597 98.6491 152.079 99.9907 148.433 99.9863V99.9863Z" fill="#3F3D56" />
                            <path d="M188.318 60.9942C192.862 61.2109 197.286 62.5253 201.209 64.8246C205.132 67.1239 208.438 70.3394 210.842 74.195C213.246 78.0506 214.677 82.4311 215.012 86.9604C215.347 91.4896 214.576 96.0324 212.764 100.198C215.384 97.1269 217.31 93.5275 218.41 89.6456C219.51 85.7638 219.759 81.6907 219.139 77.7042C218.519 73.7177 217.046 69.9114 214.819 66.5449C212.592 63.1784 209.665 60.3308 206.235 58.1963C202.806 56.0617 198.956 54.6904 194.948 54.1758C190.94 53.6612 186.868 54.0154 183.009 55.2143C179.15 56.4132 175.596 58.4286 172.589 61.1231C169.581 63.8175 167.191 67.1277 165.581 70.828C168.363 67.5603 171.86 64.9742 175.803 63.2692C179.745 61.5642 184.026 60.7859 188.318 60.9942V60.9942Z" fill="#3F3D56" />
                            <path d="M192.878 192.063C188.868 192.064 185.018 190.492 182.159 187.684C179.301 184.877 177.662 181.061 177.597 177.058C177.411 165.458 177.315 151.166 177.315 149.533C177.312 145.559 177.885 141.606 179.016 137.796L179.011 137.795C179.679 135.882 180.485 134.021 181.424 132.226C178.542 136.06 176.248 140.301 174.619 144.81L174.624 144.811C173.493 148.621 172.92 152.574 172.923 156.548C172.923 158.181 173.019 172.474 173.205 184.074C173.27 188.076 174.909 191.893 177.767 194.7C180.626 197.507 184.475 199.08 188.485 199.079V199.079C191.792 199.078 195.009 198.008 197.654 196.027C200.299 194.047 202.23 191.264 203.156 188.096C200.347 190.654 196.68 192.069 192.878 192.063V192.063Z" fill="#3F3D56" />
                            <path d="M55.5796 255.442L60.964 255.441L63.526 234.707L55.5782 234.708L55.5796 255.442Z" fill="#FFB8B8" />
                            <path d="M71.3492 260.433L54.4257 260.433L54.4254 253.906L64.8103 253.906C66.5445 253.905 68.2076 254.593 69.4339 255.817C70.6602 257.041 71.3492 258.701 71.3492 260.433V260.433L71.3492 260.433Z" fill="#2F2E41" />
                            <path d="M36.2539 255.442L41.6383 255.441L44.2003 234.707L36.2526 234.708L36.2539 255.442Z" fill="#FFB8B8" />
                            <path d="M52.0234 260.433L35.0999 260.433L35.0996 253.906L45.4845 253.906C47.2187 253.905 48.8818 254.593 50.1081 255.817C51.3344 257.041 52.0234 258.701 52.0234 260.433V260.433L52.0234 260.433Z" fill="#2F2E41" />
                            <path d="M40.9593 249.065L35.6996 248.789C35.4284 248.775 35.1627 248.707 34.9179 248.589C34.6731 248.472 34.4542 248.307 34.2737 248.104C34.0931 247.902 33.9547 247.666 33.8663 247.409C33.778 247.153 33.7414 246.882 33.7589 246.611L40.0453 177.13L68.9949 184.928L71.784 184.168L63.0618 245.678C62.9875 246.141 62.7574 246.564 62.4093 246.879C62.0613 247.193 61.6162 247.38 61.1476 247.408L55.4778 247.671C55.1942 247.687 54.9106 247.644 54.6446 247.544C54.3787 247.445 54.1363 247.292 53.9327 247.094C53.7291 246.897 53.5688 246.659 53.462 246.396C53.3551 246.134 53.3039 245.852 53.3117 245.569L54.3391 208.652C54.3439 208.481 54.2845 208.315 54.1725 208.185C54.0606 208.056 53.9043 207.974 53.7344 207.954C53.5644 207.934 53.3933 207.978 53.2545 208.078C53.1158 208.178 53.0196 208.326 52.9849 208.494L43.0774 247.435C42.9838 247.897 42.7327 248.312 42.3667 248.61C42.0008 248.908 41.5427 249.07 41.0705 249.068C41.0337 249.068 40.9966 249.067 40.9593 249.065Z" fill="#2F2E41" />
                            <path d="M56.5463 120.279C62.5042 120.279 67.334 115.458 67.334 109.51C67.334 103.562 62.5042 98.7408 56.5463 98.7408C50.5884 98.7408 45.7585 103.562 45.7585 109.51C45.7585 115.458 50.5884 120.279 56.5463 120.279Z" fill="#FFB8B8" />
                            <path d="M38.5856 141.149L39.7717 166.697L40.2005 175.992C40.2176 176.396 40.3552 176.787 40.5957 177.113C40.8363 177.439 41.1688 177.686 41.5508 177.823L69.3694 187.882C69.5941 187.966 69.8322 188.007 70.0719 188.005C70.3459 188.007 70.6174 187.953 70.8701 187.847C71.1228 187.741 71.3516 187.586 71.5428 187.39C71.734 187.194 71.8837 186.962 71.9829 186.707C72.0821 186.452 72.1289 186.179 72.1203 185.906L70.9798 139.969C70.9049 136.201 69.5152 132.576 67.0502 129.72C64.5852 126.865 61.1994 124.957 57.4765 124.326C57.2074 124.285 56.9337 124.244 56.6599 124.208C54.3514 123.922 52.0082 124.144 49.795 124.859C47.5819 125.575 45.5526 126.765 43.85 128.348C42.087 129.966 40.7017 131.952 39.792 134.164C38.8823 136.376 38.4704 138.76 38.5855 141.149L38.5856 141.149Z" fill="#CCCCCC" />
                            <path d="M82.6582 182.785C82.0002 182.581 81.3991 182.226 80.9027 181.749C80.4064 181.272 80.0286 180.686 79.7996 180.038C79.5705 179.389 79.4964 178.696 79.5833 178.014C79.6702 177.331 79.9157 176.679 80.3001 176.108L70.8665 163.586L79.0071 163.083L86.7174 175.051C87.5428 175.689 88.1172 176.595 88.3398 177.613C88.5624 178.631 88.4189 179.694 87.9347 180.616C87.4504 181.539 86.6562 182.262 85.6914 182.658C84.7265 183.055 83.6527 183.099 82.6582 182.785H82.6582Z" fill="#FFB8B8" />
                            <path d="M76.0255 173.842C75.7755 173.741 75.5482 173.591 75.3566 173.402C75.165 173.212 75.013 172.986 74.9094 172.738L60.6969 138.935C60.418 138.273 60.2725 137.563 60.2688 136.845C60.265 136.127 60.4029 135.415 60.6748 134.75C60.9467 134.086 61.3471 133.481 61.8532 132.971C62.3593 132.461 62.9611 132.055 63.6243 131.777C64.2875 131.499 64.999 131.355 65.7183 131.351C66.4375 131.348 67.1503 131.486 67.816 131.758C68.4817 132.03 69.0871 132.43 69.5978 132.936C70.1085 133.442 70.5143 134.043 70.7921 134.705L85.0046 168.508C85.2146 169.01 85.217 169.574 85.0111 170.077C84.8052 170.579 84.4079 170.98 83.9063 171.191L77.5967 173.835C77.3483 173.94 77.0815 173.994 76.8118 173.996C76.5421 173.997 76.2748 173.945 76.0254 173.842L76.0255 173.842Z" fill="#CCCCCC" />
                            <path d="M53.078 172.65L66.7287 146.557C66.9919 146.056 67.4438 145.679 67.9852 145.509C68.5266 145.339 69.1133 145.391 69.6165 145.653L89.4305 155.983C89.9332 156.246 90.3109 156.697 90.4808 157.237C90.6507 157.778 90.5989 158.363 90.3368 158.866L76.6861 184.958C76.4229 185.46 75.971 185.837 75.4296 186.007C74.8882 186.176 74.3015 186.125 73.7983 185.863L53.9843 175.533C53.4816 175.27 53.1039 174.819 52.934 174.278C52.7641 173.738 52.8159 173.152 53.078 172.65Z" fill="#3F3D56" />
                            <path d="M62.2325 160.729C61.9899 160.085 61.5998 159.507 61.0936 159.041C60.5874 158.574 59.9789 158.232 59.3168 158.042C58.6547 157.852 57.9573 157.82 57.2802 157.946C56.6031 158.073 55.9651 158.356 55.4171 158.773L42.3378 150.112L42.3156 158.254L54.7393 165.231C55.4251 166.016 56.3659 166.534 57.3966 166.696C58.4273 166.858 59.4821 166.652 60.3761 166.115C61.2701 165.578 61.9461 164.744 62.2855 163.759C62.625 162.774 62.6062 161.701 62.2325 160.729V160.729Z" fill="#FFB8B8" />
                            <path d="M45.6959 162.56L35.0067 154.107C33.8503 153.72 32.8054 153.058 31.9618 152.178C31.1181 151.299 30.5008 150.228 30.1628 149.058C29.8249 147.888 29.7765 146.654 30.0216 145.461C30.2668 144.268 30.7983 143.152 31.5705 142.21L41.276 129.512C41.9505 128.689 42.899 128.136 43.9482 127.954C44.9975 127.772 46.0773 127.973 46.9903 128.52C47.9034 129.067 48.5887 129.924 48.9209 130.934C49.2531 131.944 49.2101 133.04 48.7997 134.021L41.1204 146.561L52.4058 151.905C52.6682 152.029 52.9012 152.207 53.0895 152.428C53.2777 152.649 53.4169 152.907 53.4977 153.186C53.5786 153.464 53.5994 153.757 53.5586 154.044C53.5179 154.331 53.4166 154.606 53.2615 154.851L48.706 162.048C48.552 162.291 48.3486 162.499 48.109 162.658C47.8694 162.818 47.5989 162.925 47.3151 162.974C47.3038 162.976 47.2925 162.977 47.2811 162.979C47.0022 163.021 46.7177 163.006 46.445 162.933C46.1723 162.861 45.9174 162.734 45.6959 162.56V162.56Z" fill="#CCCCCC" />
                            <path d="M48.3948 116.721C48.3485 116.586 48.3338 116.442 48.3518 116.3C48.3699 116.159 48.4202 116.023 48.4989 115.903C48.5776 115.784 48.6826 115.684 48.8059 115.612C48.9292 115.539 49.0674 115.496 49.2101 115.485C49.5023 115.501 49.7882 115.576 50.0506 115.705C50.313 115.834 50.5465 116.015 50.7369 116.237C51.1273 116.686 51.5818 117.076 52.0858 117.393C52.6077 117.656 53.3154 117.618 53.6129 117.118C53.8923 116.648 53.7009 116.018 53.5317 115.472C53.1014 114.083 52.8606 112.642 52.8158 111.188C52.7671 109.566 52.9964 107.873 53.8962 106.607C55.0575 104.974 57.1339 104.354 59.099 104.399C61.0641 104.444 62.9973 105.049 64.9438 105.432C65.6157 105.564 66.4056 105.632 66.855 105.112C67.3329 104.559 67.1574 103.664 66.9542 102.918C66.4267 100.981 65.8671 98.9787 64.6415 97.4144C63.3164 95.789 61.4236 94.7251 59.3442 94.4372C57.3478 94.1903 55.3213 94.42 53.4312 95.1073C50.3518 96.0762 47.6421 97.9606 45.6645 100.509C43.6259 103.218 42.7451 106.623 43.2145 109.979C43.6731 112.902 45.2247 115.543 47.5565 117.37L48.3948 116.721Z" fill="#2F2E41" />
                            <path d="M185.026 255.527C182.156 254.279 179.615 252.383 177.605 249.987C175.595 247.591 174.17 244.762 173.443 241.722C172.716 238.682 172.707 235.516 173.416 232.472C174.125 229.428 175.532 226.59 177.528 224.182C175.214 225.869 173.286 228.027 171.872 230.514C170.458 233.002 169.589 235.761 169.325 238.609C169.06 241.456 169.406 244.328 170.338 247.032C171.27 249.737 172.767 252.212 174.731 254.295C176.695 256.377 179.08 258.019 181.728 259.111C184.376 260.203 187.226 260.72 190.09 260.628C192.953 260.536 195.765 259.838 198.337 258.578C200.909 257.319 203.184 255.528 205.01 253.324C202.162 255.402 198.818 256.699 195.312 257.085C191.806 257.472 188.259 256.935 185.026 255.527V255.527Z" fill="#3F3D56" />
                        </g>
                        <defs>
                            <clipPath id="clip0_138_715">
                                <rect width="371" height="261" fill="white" />
                            </clipPath>
                        </defs>
                    </svg>