<svg width="474" height="261" viewBox="0 0 474 261" fill="none" xmlns="http://www.w3.org/2000/svg">
<g clip-path="url(#clip0_558_1140)">
<path d="M263.906 259.664C256.413 260.763 248.829 261.128 241.264 260.754C223.023 259.836 205.083 254.555 189.752 244.625C182.955 240.222 176.47 234.812 172.952 227.545C168.176 217.677 169.846 205.184 176.666 196.588C179.153 193.488 182.213 190.89 185.68 188.933C186.194 188.643 186.719 188.365 187.25 188.099C193.027 185.206 199.517 184.024 205.949 184.69C216.885 185.88 226.977 192.53 232.808 201.82C238.002 210.104 239.812 219.878 240.879 229.675C241.08 231.52 241.253 233.372 241.42 235.212C240.491 240.544 239.03 245.77 237.058 250.813C236.958 251.059 236.876 251.311 236.813 251.569C237.93 253.982 238.993 256.417 240.002 258.875C240.95 259.387 242.012 259.655 243.09 259.653H263.862L263.906 259.664Z" fill="#898989"/>
<path d="M239.451 259.905C239.317 259.964 239.173 259.996 239.026 260C238.879 260.003 238.733 259.977 238.597 259.924C238.46 259.871 238.336 259.791 238.23 259.69C238.125 259.589 238.041 259.468 237.984 259.334C237.897 259.129 237.815 258.924 237.728 258.719C236.946 256.834 236.125 254.966 235.266 253.116C224.271 229.243 207.872 208.206 187.342 191.637C187.224 191.555 187.131 191.444 187.071 191.314C187.012 191.184 186.989 191.041 187.005 190.899C187.035 190.737 187.101 190.583 187.199 190.45C187.297 190.316 187.425 190.207 187.571 190.129C187.718 190.051 187.881 190.007 188.047 190.001C188.214 189.994 188.379 190.025 188.532 190.091C188.614 190.128 188.691 190.175 188.76 190.231C197.544 197.323 205.602 205.255 212.818 213.912C220.035 222.561 226.39 231.883 231.793 241.747C233.266 244.441 234.665 247.173 235.989 249.942C236.25 250.492 236.511 251.047 236.766 251.602C237.853 253.94 238.888 256.3 239.87 258.682C239.886 258.719 239.903 258.763 239.919 258.8C239.969 258.902 239.997 259.014 240 259.127C240.003 259.24 239.982 259.353 239.937 259.457C239.893 259.562 239.827 259.656 239.743 259.733C239.659 259.81 239.56 259.869 239.451 259.905Z" fill="white"/>
<path d="M155.496 186.809C167.526 186.809 177.278 177.101 177.278 165.126C177.278 153.15 167.526 143.442 155.496 143.442C143.466 143.442 133.713 153.15 133.713 165.126C133.713 177.101 143.466 186.809 155.496 186.809Z" fill="#FFB800"/>
<path d="M153.336 173.397C152.846 173.398 152.369 173.24 151.977 172.948L151.953 172.93L146.834 169.028C146.597 168.847 146.397 168.622 146.248 168.364C146.098 168.107 146.001 167.823 145.962 167.528C145.922 167.233 145.942 166.934 146.019 166.646C146.096 166.359 146.229 166.09 146.411 165.854C146.593 165.617 146.819 165.419 147.078 165.271C147.336 165.122 147.622 165.025 147.918 164.986C148.214 164.947 148.515 164.967 148.804 165.043C149.093 165.12 149.363 165.253 149.6 165.434L152.916 167.965L160.751 157.793C160.933 157.557 161.16 157.359 161.418 157.21C161.677 157.061 161.962 156.965 162.258 156.926C162.554 156.887 162.855 156.906 163.144 156.983C163.432 157.06 163.703 157.193 163.94 157.374L163.891 157.44L163.941 157.375C164.419 157.74 164.732 158.28 164.811 158.875C164.89 159.47 164.728 160.072 164.362 160.549L155.146 172.514C154.933 172.789 154.658 173.013 154.345 173.166C154.031 173.319 153.686 173.398 153.336 173.397Z" fill="white"/>
<path d="M473.488 261H108.512C108.376 261 108.246 260.947 108.15 260.853C108.054 260.759 108 260.632 108 260.5C108 260.368 108.054 260.241 108.15 260.147C108.246 260.053 108.376 260 108.512 260H473.488C473.624 260 473.754 260.053 473.85 260.147C473.946 260.241 474 260.368 474 260.5C474 260.632 473.946 260.759 473.85 260.853C473.754 260.947 473.624 261 473.488 261Z" fill="#3F3D56"/>
<path d="M330.365 113.976C334.375 113.976 337.625 110.74 337.625 106.748C337.625 102.756 334.375 99.5201 330.365 99.5201C326.355 99.5201 323.104 102.756 323.104 106.748C323.104 110.74 326.355 113.976 330.365 113.976Z" fill="#FFB800"/>
<path d="M329.645 109.505C329.482 109.505 329.323 109.453 329.192 109.355L329.184 109.349L327.478 108.049C327.398 107.988 327.332 107.913 327.282 107.827C327.232 107.742 327.199 107.647 327.186 107.548C327.173 107.45 327.179 107.35 327.205 107.254C327.23 107.158 327.275 107.068 327.335 106.99C327.396 106.911 327.472 106.845 327.558 106.795C327.644 106.745 327.74 106.713 327.839 106.7C327.937 106.687 328.038 106.694 328.134 106.72C328.231 106.746 328.321 106.79 328.4 106.851L329.505 107.694L332.117 104.304C332.177 104.225 332.253 104.159 332.339 104.109C332.425 104.06 332.52 104.028 332.619 104.015C332.718 104.002 332.818 104.008 332.914 104.034C333.01 104.059 333.101 104.104 333.18 104.164L333.163 104.186L333.18 104.164C333.339 104.286 333.444 104.466 333.47 104.664C333.496 104.863 333.443 105.063 333.32 105.222L330.248 109.21C330.177 109.302 330.086 109.377 329.981 109.428C329.877 109.479 329.762 109.505 329.645 109.505Z" fill="white"/>
<path d="M330.365 135.103C334.375 135.103 337.625 131.867 337.625 127.875C337.625 123.883 334.375 120.647 330.365 120.647C326.355 120.647 323.104 123.883 323.104 127.875C323.104 131.867 326.355 135.103 330.365 135.103Z" fill="#FFB800"/>
<path d="M329.645 130.632C329.482 130.633 329.323 130.58 329.192 130.482L329.184 130.476L327.478 129.176C327.398 129.116 327.332 129.041 327.282 128.955C327.232 128.869 327.199 128.774 327.186 128.676C327.173 128.577 327.179 128.477 327.205 128.381C327.23 128.285 327.275 128.195 327.335 128.117C327.396 128.038 327.472 127.972 327.558 127.922C327.644 127.873 327.74 127.84 327.839 127.827C327.937 127.815 328.038 127.821 328.134 127.847C328.231 127.873 328.321 127.917 328.4 127.978L329.505 128.821L332.117 125.431C332.177 125.352 332.253 125.286 332.339 125.236C332.425 125.187 332.52 125.155 332.619 125.142C332.718 125.129 332.818 125.135 332.914 125.161C333.01 125.187 333.101 125.231 333.18 125.291L333.163 125.313L333.18 125.291C333.339 125.413 333.444 125.593 333.47 125.792C333.496 125.99 333.443 126.19 333.32 126.349L330.248 130.338C330.177 130.43 330.086 130.504 329.981 130.555C329.877 130.606 329.762 130.633 329.645 130.632Z" fill="white"/>
<path d="M334.274 159.566C338.284 159.566 341.535 156.33 341.535 152.338C341.535 148.346 338.284 145.11 334.274 145.11C330.264 145.11 327.014 148.346 327.014 152.338C327.014 156.33 330.264 159.566 334.274 159.566Z" fill="#FFB800"/>
<path d="M333.555 155.095C333.391 155.096 333.232 155.043 333.102 154.945L333.093 154.939L331.387 153.639C331.308 153.579 331.241 153.504 331.191 153.418C331.141 153.332 331.109 153.237 331.095 153.139C331.082 153.04 331.089 152.94 331.114 152.844C331.14 152.749 331.184 152.659 331.245 152.58C331.306 152.501 331.381 152.435 331.468 152.385C331.554 152.336 331.649 152.303 331.748 152.291C331.847 152.278 331.947 152.284 332.044 152.31C332.14 152.336 332.23 152.38 332.309 152.441L333.415 153.285L336.026 149.894C336.087 149.815 336.162 149.749 336.249 149.7C336.335 149.65 336.43 149.618 336.529 149.605C336.627 149.592 336.728 149.598 336.824 149.624C336.92 149.65 337.01 149.694 337.089 149.754L337.073 149.776L337.09 149.755C337.249 149.876 337.353 150.056 337.38 150.255C337.406 150.453 337.352 150.654 337.23 150.813L334.158 154.801C334.087 154.893 333.995 154.967 333.891 155.018C333.786 155.069 333.671 155.096 333.555 155.095Z" fill="white"/>
<path d="M223 49.5H362.091C365.907 49.5 368.753 53.0148 367.96 56.7472L361 89.5L357.5 121.5L361 171L367.5 197.5L371.5 223.5L370.213 241.084C370.071 243.024 369.742 244.945 369.231 246.82C367.028 254.897 359.692 260.5 351.321 260.5H223.598C217.998 260.5 214.13 254.894 216.12 249.658L221.5 235.5L223 209L220.5 174.5L213.5 129L211 97.5L214 67.5L218.5 56L223 49.5Z" fill="white"/>
<path d="M404.288 212.684C404.213 212.684 404.165 212.682 404.149 212.681L395.134 212.682V211.359H404.181C404.391 211.366 408.664 211.486 412.602 206.73C418.469 199.642 423.288 182.095 412.922 138.754C398.983 80.4761 410.608 28.9908 416.254 9.56023C416.532 8.59892 416.582 7.58639 416.399 6.60265C416.216 5.6189 415.807 4.69091 415.202 3.89196C414.597 3.09302 413.814 2.44503 412.914 1.99919C412.015 1.55335 411.023 1.32189 410.018 1.32307H275.396C274.373 1.32444 273.364 1.56601 272.452 2.02818C271.54 2.49036 270.75 3.16012 270.147 3.98309C267.755 7.2578 264.473 13.5488 262.42 24.924L261.112 24.6902C263.21 13.0678 266.598 6.59173 269.072 3.20526C269.798 2.21362 270.75 1.40658 271.849 0.849666C272.948 0.292748 274.163 0.00164715 275.396 3.60086e-06H410.018C411.229 -0.00115654 412.424 0.278034 413.508 0.81552C414.592 1.353 415.536 2.13406 416.264 3.09697C416.993 4.05988 417.487 5.17827 417.706 6.36378C417.926 7.54928 417.866 8.76943 417.531 9.92781C411.914 29.2576 400.349 80.4758 414.215 138.448C424.727 182.398 419.673 200.326 413.583 207.625C409.566 212.44 405.14 212.684 404.288 212.684Z" fill="#E6E6E6"/>
<path d="M380.032 236.83C379.957 236.83 379.909 236.828 379.893 236.827L370.878 236.828V235.505H379.925C380.136 235.511 384.408 235.632 388.346 230.876C394.213 223.788 399.032 206.241 388.666 162.9C374.727 104.622 386.352 53.1366 391.998 33.7061C392.276 32.7448 392.325 31.7323 392.143 30.7485C391.96 29.7648 391.55 28.8368 390.946 28.0378C390.341 27.2389 389.558 26.5909 388.658 26.1451C387.758 25.6992 386.767 25.4678 385.762 25.469H251.14C250.117 25.4703 249.108 25.7119 248.196 26.1741C247.284 26.6362 246.494 27.306 245.89 28.129C243.499 31.4037 240.217 37.6947 238.164 49.0699L236.855 48.836C238.954 37.2137 242.342 30.7376 244.815 27.3511C245.542 26.3595 246.494 25.5525 247.593 24.9955C248.692 24.4386 249.907 24.1475 251.14 24.1459H385.762C386.973 24.1447 388.168 24.4239 389.252 24.9614C390.336 25.4989 391.279 26.2799 392.008 27.2429C392.737 28.2058 393.23 29.3242 393.45 30.5097C393.67 31.6952 393.61 32.9153 393.274 34.0737C387.658 53.4034 376.093 104.622 389.959 162.594C400.471 206.544 395.417 224.471 389.327 231.771C385.31 236.586 380.884 236.83 380.032 236.83Z" fill="#CCCCCC"/>
<path d="M365.702 186.742C351.834 128.77 363.401 77.5479 369.02 58.2221C369.354 57.0637 369.414 55.8437 369.194 54.6585C368.974 53.4732 368.48 52.355 367.752 51.3922C367.023 50.4294 366.08 49.6481 364.996 49.1102C363.913 48.5722 362.718 48.2923 361.508 48.2924H226.883C225.65 48.2936 224.435 48.5842 223.337 49.1406C222.238 49.6971 221.287 50.5036 220.56 51.4948C215.126 58.9338 203.849 83.6025 216.444 151.86C223.18 188.377 223.079 213.273 220.879 229.675C219.644 238.91 217.74 245.448 216.014 249.857L215.83 250.324C215.466 251.216 215.277 252.169 215.271 253.132C215.258 254.219 215.477 255.296 215.913 256.293C216.35 257.289 216.993 258.183 217.801 258.914C218.328 259.405 218.925 259.817 219.572 260.137C220.109 260.41 220.677 260.617 221.264 260.754C221.862 260.899 222.475 260.972 223.09 260.971H355.638C355.655 260.971 355.699 260.976 355.777 260.976C356.626 260.976 361.055 260.732 365.071 255.917C371.159 248.617 376.213 230.692 365.702 186.742ZM364.088 255.022C360.151 259.781 355.878 259.659 355.671 259.653H223.09C222.029 259.653 220.984 259.394 220.046 258.898C219.108 258.403 218.307 257.687 217.712 256.812C217.188 256.056 216.836 255.195 216.681 254.289C216.526 253.384 216.571 252.456 216.813 251.569C216.876 251.312 216.958 251.059 217.058 250.813C219.03 245.77 220.491 240.544 221.42 235.212C224.57 218.116 225.157 191.735 217.751 151.621C205.251 83.8694 216.304 59.5732 221.632 52.2732C222.237 51.4514 223.027 50.7827 223.939 50.321C224.851 49.8594 225.86 49.6177 226.883 49.6156H361.508C362.512 49.6149 363.503 49.8466 364.402 50.2924C365.301 50.7382 366.084 51.3859 366.688 52.1844C367.292 52.983 367.702 53.9104 367.885 54.8936C368.068 55.8767 368.018 56.8887 367.741 57.8496C362.094 77.2811 350.471 128.77 364.412 187.048C374.778 230.386 369.958 247.933 364.088 255.022Z" fill="#3F3D56"/>
<path d="M301.746 111.418H232.386C230.976 111.418 229.624 110.861 228.627 109.868C227.63 108.876 227.07 107.53 227.07 106.126C227.07 104.722 227.63 103.376 228.627 102.384C229.624 101.391 230.976 100.834 232.386 100.834H301.746C303.156 100.834 304.508 101.391 305.505 102.384C306.502 103.376 307.062 104.722 307.062 106.126C307.062 107.53 306.502 108.876 305.505 109.868C304.508 110.861 303.156 111.418 301.746 111.418Z" fill="#CCCCCC"/>
<path d="M301.746 134.213H232.386C230.976 134.213 229.624 133.656 228.627 132.663C227.63 131.671 227.07 130.325 227.07 128.921C227.07 127.518 227.63 126.171 228.627 125.179C229.624 124.186 230.976 123.629 232.386 123.629H301.746C303.156 123.629 304.508 124.186 305.505 125.179C306.502 126.171 307.062 127.518 307.062 128.921C307.062 130.325 306.502 131.671 305.505 132.663C304.508 133.656 303.156 134.213 301.746 134.213Z" fill="#CCCCCC"/>
<path d="M307.331 157.564H237.971C236.561 157.564 235.209 157.007 234.212 156.014C233.215 155.022 232.655 153.676 232.655 152.272C232.655 150.869 233.215 149.523 234.212 148.53C235.209 147.538 236.561 146.98 237.971 146.98H307.331C308.741 146.98 310.093 147.538 311.091 148.53C312.088 149.523 312.648 150.869 312.648 152.272C312.648 153.676 312.088 155.022 311.091 156.014C310.093 157.007 308.741 157.564 307.331 157.564Z" fill="#CCCCCC"/>
<path d="M311.241 182.027H241.881C240.471 182.027 239.118 181.47 238.121 180.477C237.124 179.485 236.564 178.139 236.564 176.735C236.564 175.332 237.124 173.986 238.121 172.993C239.118 172.001 240.471 171.443 241.881 171.443H311.241C312.651 171.443 314.003 172.001 315 172.993C315.997 173.986 316.557 175.332 316.557 176.735C316.557 178.139 315.997 179.485 315 180.477C314.003 181.47 312.651 182.027 311.241 182.027Z" fill="#CCCCCC"/>
<path d="M311.27 70.3261H261.429C260.73 70.3268 260.038 70.1904 259.393 69.9248C258.747 69.6591 258.16 69.2694 257.666 68.7779C257.172 68.2864 256.78 67.7028 256.512 67.0603C256.245 66.4179 256.107 65.7293 256.107 65.0338C256.107 64.3384 256.245 63.6498 256.512 63.0073C256.78 62.3649 257.172 61.7812 257.666 61.2897C258.16 60.7982 258.747 60.4085 259.393 60.1429C260.038 59.8772 260.73 59.7409 261.429 59.7416H311.27C312.68 59.7416 314.032 60.2992 315.029 61.2916C316.026 62.2841 316.587 63.6302 316.587 65.0338C316.587 66.4374 316.026 67.7835 315.029 68.776C314.032 69.7685 312.68 70.3261 311.27 70.3261Z" fill="#FFB800"/>
<path d="M338.743 183.963C342.753 183.963 346.003 180.727 346.003 176.735C346.003 172.744 342.753 169.508 338.743 169.508C334.733 169.508 331.482 172.744 331.482 176.735C331.482 180.727 334.733 183.963 338.743 183.963Z" fill="#CCCCCC"/>
<path d="M314.592 205.935H245.232C243.822 205.935 242.47 205.377 241.473 204.385C240.476 203.392 239.916 202.046 239.916 200.642C239.916 199.239 240.476 197.893 241.473 196.9C242.47 195.908 243.822 195.35 245.232 195.35H314.592C316.002 195.35 317.354 195.908 318.351 196.9C319.348 197.893 319.908 199.239 319.908 200.642C319.908 202.046 319.348 203.392 318.351 204.385C317.354 205.377 316.002 205.935 314.592 205.935Z" fill="#CCCCCC"/>
<path d="M342.094 207.87C346.104 207.87 349.354 204.634 349.354 200.642C349.354 196.651 346.104 193.415 342.094 193.415C338.084 193.415 334.833 196.651 334.833 200.642C334.833 204.634 338.084 207.87 342.094 207.87Z" fill="#CCCCCC"/>
</g>
<defs>
<clipPath id="clip0_558_1140">
<rect width="474" height="261" fill="white"/>
</clipPath>
</defs>
</svg>
