<svg width="24" height="24" viewBox="0 0 24 24" fill="none" xmlns="http://www.w3.org/2000/svg">
<path fill-rule="evenodd" clip-rule="evenodd" d="M12 24C18.6274 24 24 18.6274 24 12C24 5.37258 18.6274 0 12 0C5.37258 0 0 5.37258 0 12C0 18.6274 5.37258 24 12 24Z" fill="#3A3838"/>
<path d="M19.2 7.71883C18.6994 7.94265 18.1623 8.09444 17.598 8.16221C18.1742 7.81402 18.6153 7.26176 18.8243 6.60571C18.2838 6.92815 17.6872 7.16228 17.0515 7.2892C16.5425 6.74122 15.8184 6.3999 15.0153 6.3999C13.4746 6.3999 12.2253 7.66053 12.2253 9.21444C12.2253 9.43483 12.2499 9.65008 12.2975 9.85591C9.97918 9.73841 7.92342 8.61758 6.54753 6.91443C6.30702 7.3295 6.1702 7.81315 6.1702 8.32942C6.1702 9.3062 6.66311 10.1681 7.41098 10.6723C6.95376 10.6569 6.52373 10.5299 6.14727 10.319V10.3541C6.14727 11.7177 7.10929 12.8557 8.38489 13.1147C8.15118 13.1781 7.90473 13.2133 7.64978 13.2133C7.46962 13.2133 7.2954 13.1953 7.12458 13.161C7.4798 14.2801 8.50982 15.0939 9.7302 15.1162C8.77583 15.8709 7.57245 16.3194 6.2654 16.3194C6.0402 16.3194 5.81838 16.3057 5.59998 16.2808C6.8348 17.0809 8.30078 17.5474 9.87638 17.5474C15.0086 17.5474 17.8139 13.2579 17.8139 9.53776L17.8046 9.17329C18.3527 8.77878 18.8269 8.28312 19.2 7.71883Z" fill="#FFB800"/>
</svg>
