<svg width="75" height="54" viewBox="0 0 75 54" fill="none" xmlns="http://www.w3.org/2000/svg">
<path fill-rule="evenodd" clip-rule="evenodd" d="M71.0069 4.18204C72.1699 5.35252 73.005 6.80801 73.4283 8.40274C74.511 14.3983 75.0365 20.4809 74.998 26.5731C75.0365 32.6656 74.511 38.7482 73.4283 44.7436C73.005 46.3384 72.1699 47.7939 71.0069 48.9642C69.8441 50.1348 68.3939 50.9793 66.8019 51.4129C57.08 52.5843 47.2914 53.1124 37.4999 52.9931C27.7085 53.1124 17.9198 52.5843 8.19797 51.4129C6.606 50.9793 5.15593 50.1348 3.99297 48.9642C2.83 47.7939 1.99499 46.3384 1.57154 44.7436C0.488825 38.7482 -0.0366008 32.6656 0.00197956 26.5731C-0.0366008 20.4809 0.488825 14.3983 1.57154 8.40274C1.99499 6.80801 2.83 5.35252 3.99297 4.18204C5.15593 3.01155 6.606 2.16716 8.19797 1.73345C17.9198 0.56193 27.7085 0.0340168 37.4999 0.15318C47.2914 0.0340168 57.08 0.56193 66.8019 1.73345C68.3939 2.16716 69.8441 3.01155 71.0069 4.18204ZM29.8291 15.4203V37.7263L49.4298 26.5732L29.8291 15.4203Z" fill="#B7B7B7"/>
</svg>
