<svg width="49" height="45" viewBox="0 0 49 45" fill="none" xmlns="http://www.w3.org/2000/svg">
<path d="M13.1481 43C15.2618 43 22.093 43 26.8982 43C30.2225 43 33.6353 42.7662 36.5829 41.2292C51.1917 33.6113 50.4517 11.2165 36.5033 3.76332C33.6138 2.21939 30.2468 2 26.9707 2C22.7746 2 16.8553 2 13.1481 2M13.1481 43C18.3686 43 19.666 39.7864 17.0796 35.8975L7.11807 23.3939C6.53601 22.6633 6.5372 21.6271 7.12093 20.8979L17.0796 8.45657C18.8198 5.42192 17.9174 2.90381 13.1481 2M13.1481 43H0M13.9268 32.4433H22.1737C25.8921 32.4433 29.8866 32.2925 32.7301 29.8966C37.8189 25.6089 37.3048 18.2043 32.1317 14.3897C29.5556 12.4902 26.1607 12.3953 22.96 12.3953H13.9268M13.1481 2H0" stroke="#FBB901" stroke-width="3"/>
</svg>
